<svg width="53" height="18" viewBox="0 0 53 18" fill="none" xmlns="http://www.w3.org/2000/svg">
<circle cx="8.5" cy="8.59961" r="8.5" fill="#FF844F"/>
<g clip-path="url(#clip0_1404_69)">
<path d="M8.49996 7.57585C9.51248 7.57585 10.3333 6.75504 10.3333 5.74251C10.3333 4.72999 9.51248 3.90918 8.49996 3.90918C7.48744 3.90918 6.66663 4.72999 6.66663 5.74251C6.66663 6.75504 7.48744 7.57585 8.49996 7.57585Z" stroke="white" stroke-width="1.5"/>
<path d="M12.1666 11.0137C12.1666 12.1526 12.1666 13.0762 8.49998 13.0762C4.83331 13.0762 4.83331 12.1526 4.83331 11.0137C4.83331 9.87471 6.47506 8.95117 8.49998 8.95117C10.5249 8.95117 12.1666 9.87471 12.1666 11.0137Z" stroke="white" stroke-width="1.5"/>
</g>
<circle cx="20.5" cy="8.59961" r="8.5" fill="#387ADF"/>
<g clip-path="url(#clip1_1404_69)">
<path d="M20.5 7.57585C21.5125 7.57585 22.3333 6.75504 22.3333 5.74251C22.3333 4.72999 21.5125 3.90918 20.5 3.90918C19.4874 3.90918 18.6666 4.72999 18.6666 5.74251C18.6666 6.75504 19.4874 7.57585 20.5 7.57585Z" stroke="white" stroke-width="1.5"/>
<path d="M24.1666 11.0137C24.1666 12.1526 24.1666 13.0762 20.5 13.0762C16.8333 13.0762 16.8333 12.1526 16.8333 11.0137C16.8333 9.87471 18.4751 8.95117 20.5 8.95117C22.5249 8.95117 24.1666 9.87471 24.1666 11.0137Z" stroke="white" stroke-width="1.5"/>
</g>
<circle cx="32.5" cy="8.59961" r="8.5" fill="#CB2187"/>
<g clip-path="url(#clip2_1404_69)">
<path d="M32.5 7.57585C33.5125 7.57585 34.3333 6.75504 34.3333 5.74251C34.3333 4.72999 33.5125 3.90918 32.5 3.90918C31.4874 3.90918 30.6666 4.72999 30.6666 5.74251C30.6666 6.75504 31.4874 7.57585 32.5 7.57585Z" stroke="white" stroke-width="1.5"/>
<path d="M36.1666 11.0137C36.1666 12.1526 36.1666 13.0762 32.5 13.0762C28.8333 13.0762 28.8333 12.1526 28.8333 11.0137C28.8333 9.87471 30.4751 8.95117 32.5 8.95117C34.5249 8.95117 36.1666 9.87471 36.1666 11.0137Z" stroke="white" stroke-width="1.5"/>
</g>
<circle cx="44.5" cy="8.59961" r="8.5" fill="#3EB67B"/>
<g clip-path="url(#clip3_1404_69)">
<path d="M44.5 7.57585C45.5125 7.57585 46.3333 6.75504 46.3333 5.74251C46.3333 4.72999 45.5125 3.90918 44.5 3.90918C43.4874 3.90918 42.6666 4.72999 42.6666 5.74251C42.6666 6.75504 43.4874 7.57585 44.5 7.57585Z" stroke="white" stroke-width="1.5"/>
<path d="M48.1666 11.0137C48.1666 12.1526 48.1666 13.0762 44.5 13.0762C40.8333 13.0762 40.8333 12.1526 40.8333 11.0137C40.8333 9.87471 42.4751 8.95117 44.5 8.95117C46.5249 8.95117 48.1666 9.87471 48.1666 11.0137Z" stroke="white" stroke-width="1.5"/>
</g>
<defs>
<clipPath id="clip0_1404_69">
<rect width="11" height="11" fill="white" transform="translate(3 2.99219)"/>
</clipPath>
<clipPath id="clip1_1404_69">
<rect width="11" height="11" fill="white" transform="translate(15 2.99219)"/>
</clipPath>
<clipPath id="clip2_1404_69">
<rect width="11" height="11" fill="white" transform="translate(27 2.99219)"/>
</clipPath>
<clipPath id="clip3_1404_69">
<rect width="11" height="11" fill="white" transform="translate(39 2.99219)"/>
</clipPath>
</defs>
</svg>
