<svg xmlns="http://www.w3.org/2000/svg" xmlns:xlink="http://www.w3.org/1999/xlink" viewBox="0 0 24 30" version="1.1" x="0px" y="0px"><title>i24_photoedit_adjust</title><desc>Created with Sketch.</desc><g stroke="none" stroke-width="1" fill="none" fill-rule="evenodd" transform="translate(-699.000000, -540.000000)"><g transform="translate(699.000000, 540.000000)" fill="#000000"><path d="M6.11445057,4 C6.43301648,2.98572326 7.38058955,2.25 8.5,2.25 C9.61941045,2.25 10.5669835,2.98572326 10.8855494,4 L20.25,4 C20.6642136,4 21,4.33578644 21,4.75 C21,5.16421356 20.6642136,5.5 20.25,5.5 L10.8855494,5.5 C10.5669835,6.51427674 9.61941045,7.25 8.5,7.25 C7.38058955,7.25 6.43301648,6.51427674 6.11445057,5.5 L3.75,5.5 C3.33578644,5.5 3,5.16421356 3,4.75 C3,4.33578644 3.33578644,4 3.75,4 L6.11445057,4 Z M8.5,5.64999998 C8.00294374,5.64999998 7.60000002,5.24705626 7.60000002,4.75 C7.60000002,4.25294374 8.00294374,3.85000002 8.5,3.85000002 C8.99705626,3.85000002 9.39999998,4.25294374 9.39999998,4.75 C9.39999998,5.24705626 8.99705626,5.64999998 8.5,5.64999998 Z M14.1144506,11 C14.4330165,9.98572326 15.3805896,9.25 16.5,9.25 C17.6194104,9.25 18.5669835,9.98572326 18.8855494,11 L20.25,11 C20.6642136,11 21,11.3357864 21,11.75 C21,12.1642136 20.6642136,12.5 20.25,12.5 L18.8855494,12.5 C18.5669835,13.5142767 17.6194104,14.25 16.5,14.25 C15.3805896,14.25 14.4330165,13.5142767 14.1144506,12.5 L3.75,12.5 C3.33578644,12.5 3,12.1642136 3,11.75 C3,11.3357864 3.33578644,11 3.75,11 L14.1144506,11 Z M16.5,12.65 C16.9970563,12.65 17.4,12.2470563 17.4,11.75 C17.4,11.2529437 16.9970563,10.85 16.5,10.85 C16.0029437,10.85 15.6,11.2529437 15.6,11.75 C15.6,12.2470563 16.0029437,12.65 16.5,12.65 Z M7.11445057,18 C7.43301648,16.9857233 8.38058955,16.25 9.5,16.25 C10.6194104,16.25 11.5669835,16.9857233 11.8855494,18 L20.25,18 C20.6642136,18 21,18.3357864 21,18.75 C21,19.1642136 20.6642136,19.5 20.25,19.5 L11.8855494,19.5 C11.5669835,20.5142767 10.6194104,21.25 9.5,21.25 C8.38058955,21.25 7.43301648,20.5142767 7.11445057,19.5 L3.75,19.5 C3.33578644,19.5 3,19.1642136 3,18.75 C3,18.3357864 3.33578644,18 3.75,18 L7.11445057,18 Z M9.5,19.65 C9.99705626,19.65 10.4,19.2470563 10.4,18.75 C10.4,18.2529437 9.99705626,17.85 9.5,17.85 C9.00294374,17.85 8.60000002,18.2529437 8.60000002,18.75 C8.60000002,19.2470563 9.00294374,19.65 9.5,19.65 Z"/></g></g><text x="0" y="39" fill="#000000" font-size="5px" font-weight="bold" font-family="'Helvetica Neue', Helvetica, Arial-Unicode, Arial, Sans-serif">Created by Denis Klyuchnikov</text><text x="0" y="44" fill="#000000" font-size="5px" font-weight="bold" font-family="'Helvetica Neue', Helvetica, Arial-Unicode, Arial, Sans-serif">from the Noun Project</text></svg>