<svg width="17" height="16" viewBox="0 0 17 16" fill="none" xmlns="http://www.w3.org/2000/svg">
<path d="M2.30784 6.86216C2.21594 6.7684 2.16431 6.64125 2.16431 6.50867C2.16431 6.37608 2.21594 6.24893 2.30784 6.15516L6.86274 1.50817L6.93137 1.44917C7.02581 1.38301 7.14 1.35268 7.25408 1.36346C7.36817 1.37424 7.47495 1.42544 7.55587 1.50817L7.61274 1.57817C7.6778 1.67454 7.70773 1.79111 7.69734 1.90765C7.68696 2.02418 7.63691 2.13333 7.55587 2.21617L3.83823 6.00816H14.7059C14.8359 6.00816 14.9606 6.06084 15.0525 6.15461C15.1444 6.24838 15.1961 6.37556 15.1961 6.50816C15.1961 6.64077 15.1444 6.76795 15.0525 6.86172C14.9606 6.95549 14.8359 7.00816 14.7059 7.00816H2.65391C2.52416 7.00814 2.3997 6.95563 2.30784 6.86216ZM1.47058 9.50816C1.47058 9.37556 1.52223 9.24838 1.61416 9.15461C1.70609 9.06084 1.83077 9.00816 1.96078 9.00816H14.0127C14.1096 9.00819 14.2043 9.03749 14.2849 9.09237C14.3654 9.14725 14.4283 9.22524 14.4654 9.31651C14.5025 9.40778 14.5123 9.50822 14.4935 9.60516C14.4747 9.7021 14.4282 9.79118 14.3598 9.86116L9.80391 14.5082L9.73529 14.5672C9.6344 14.6366 9.51184 14.6653 9.39136 14.6478C9.27088 14.6303 9.16106 14.5679 9.08318 14.4725C9.00529 14.3771 8.9649 14.2556 8.96981 14.1316C8.97473 14.0076 9.02462 13.8898 9.1098 13.8012L12.8314 10.0082H1.96078C1.83077 10.0082 1.70609 9.95549 1.61416 9.86172C1.52223 9.76795 1.47058 9.64077 1.47058 9.50816Z" fill="white"/>
</svg>
