<svg width="52" height="52" viewBox="0 0 52 52" fill="none" xmlns="http://www.w3.org/2000/svg">
<g clip-path="url(#clip0_2026_2271)">
<path d="M51.1247 29.0983H25.051C23.6539 28.9907 22.2705 29.4375 21.2004 30.3422C20.1303 31.2469 19.4595 32.5366 19.3332 33.9322L19.331 33.9517C19.4591 35.3656 20.1434 36.6708 21.2334 37.5805C22.3235 38.4902 23.7301 38.9298 25.1442 38.8028L25.1247 38.805H51.1247C51.2883 38.8201 51.4533 38.8024 51.6101 38.7529C51.7668 38.7035 51.9121 38.6232 52.0374 38.5169C52.1627 38.4105 52.2655 38.2802 52.3398 38.1336C52.4142 37.9871 52.4585 37.8271 52.4702 37.6632V30.2445C52.4277 29.9274 52.2716 29.6365 52.031 29.4258C51.7903 29.215 51.4814 29.0986 51.1615 29.0983H51.1225H51.1247ZM25.051 36.9807C24.4382 36.9807 23.8392 36.7989 23.3297 36.4585C22.8201 36.1181 22.423 35.6342 22.1885 35.068C21.954 34.5019 21.8926 33.8789 22.0122 33.2779C22.1317 32.6769 22.4268 32.1248 22.8601 31.6915C23.2935 31.2582 23.8455 30.9631 24.4465 30.8435C25.0476 30.724 25.6705 30.7853 26.2367 31.0198C26.8028 31.2544 27.2867 31.6515 27.6272 32.161C27.9676 32.6705 28.1493 33.2695 28.1493 33.8823V33.891C28.1493 35.5983 26.7648 36.9807 25.0597 36.9807H25.051ZM7.13916 0V13.8753H10.1032V7.94733C10.4022 8.021 10.7488 8.06867 11.1042 8.08167H11.1128C12.1838 8.07881 13.2102 7.65223 13.9677 6.89511C14.7253 6.13799 15.1524 5.11185 15.1558 4.04083C15.1487 3.68908 15.1007 3.33935 15.0128 2.99867L15.0193 3.03117H31.252C31.1738 3.35949 31.1288 3.69484 31.1177 4.03217V4.04083C31.1205 5.11185 31.5471 6.13822 32.3042 6.89574C33.0613 7.65327 34.0875 8.0804 35.1585 8.08383C35.5225 8.07083 35.8713 8.02317 36.205 7.94083L36.1703 7.94733V13.8753H39.2058V0H7.13916ZM40.482 12.1897H44.2542C43.9716 11.3688 43.4764 10.6375 42.8191 10.0704C42.1617 9.50325 41.3658 9.12056 40.5123 8.96133L40.482 8.957V12.1897Z" fill="black"/>
<path d="M24.8538 27.4824H50.7195V19.6022C50.6088 18.4333 50.0432 17.3546 49.1447 16.5987C48.2462 15.8429 47.0866 15.4703 45.916 15.5614H45.9312H4.85117C4.81619 15.5232 4.76836 15.4993 4.71683 15.4942C4.43201 15.3604 4.18819 15.1528 4.01065 14.8929C3.83311 14.6331 3.72833 14.3305 3.70717 14.0165V14.0122C3.74166 13.6225 3.8944 13.2526 4.14494 12.9521C4.39548 12.6516 4.73185 12.4349 5.109 12.3309L5.122 12.3287V8.89453C2.29017 9.02886 0 13.0697 0 18.1224V47.9617C0.111781 49.1292 0.677108 50.2063 1.5745 50.9615C2.47188 51.7167 3.62971 52.0897 4.79917 52.0004H4.784H45.864C47.0285 52.0863 48.1804 51.7136 49.0738 50.9618C49.9672 50.2101 50.5314 49.1389 50.6458 47.9769L50.648 47.9595V40.0794H24.9253C20.7502 40.0794 17.381 37.2497 17.381 33.8155C17.381 30.3142 20.748 27.4845 24.856 27.4845L24.8538 27.4824Z" fill="black"/>
</g>
<defs>
<clipPath id="clip0_2026_2271">
<rect width="52" height="52" fill="white"/>
</clipPath>
</defs>
</svg>
