<svg width="25" height="26" viewBox="0 0 25 26" fill="none" xmlns="http://www.w3.org/2000/svg">
<g clip-path="url(#clip0_110_63)">
<path d="M24.9881 13.2432C24.9881 12.178 24.903 11.4007 24.7189 10.5946H12.749V15.4024H19.7751C19.6335 16.5972 18.8686 18.3966 17.1687 19.6057L17.1448 19.7666L20.9295 22.746L21.1917 22.7726C23.5998 20.5126 24.9881 17.1874 24.9881 13.2432Z" fill="#4285F4"/>
<path d="M12.749 25.9106C16.1912 25.9106 19.081 24.759 21.1917 22.7726L17.1687 19.6056C16.0921 20.3686 14.6472 20.9012 12.749 20.9012C9.37764 20.9012 6.51621 18.6412 5.49619 15.5176L5.34668 15.5305L1.41133 18.6254L1.35986 18.7708C3.45635 23.0028 7.7627 25.9106 12.749 25.9106Z" fill="#34A853"/>
<path d="M5.49619 15.5177C5.22705 14.7116 5.07129 13.8478 5.07129 12.9554C5.07129 12.0628 5.22705 11.1992 5.48203 10.3931L5.4749 10.2214L1.49023 7.07678L1.35986 7.1398C0.495801 8.89599 0 10.8681 0 12.9554C0 15.0426 0.495801 17.0146 1.35986 18.7708L5.49619 15.5177Z" fill="#FBBC05"/>
<path d="M12.749 5.00937C15.143 5.00937 16.7578 6.06018 17.6786 6.93833L21.2767 3.36839C19.0669 1.28114 16.1912 0 12.749 0C7.7627 0 3.45635 2.90773 1.35986 7.13978L5.48203 10.3931C6.51621 7.26938 9.37764 5.00937 12.749 5.00937Z" fill="#EB4335"/>
</g>
<defs>
<clipPath id="clip0_110_63">
<rect width="25" height="26" fill="white"/>
</clipPath>
</defs>
</svg>
