<svg width="33" height="34" viewBox="0 0 33 34" fill="none" xmlns="http://www.w3.org/2000/svg">
<g clip-path="url(#clip0_138_183)">
<path fill-rule="evenodd" clip-rule="evenodd" d="M22.4315 31.0387C24.5627 31.0387 26.6067 30.1921 28.1137 28.6851C29.6206 27.1781 30.4673 25.1342 30.4673 23.003C30.4673 20.8718 29.6206 18.8279 28.1137 17.3209C26.6067 15.8139 24.5627 14.9673 22.4315 14.9673C20.3003 14.9673 18.2564 15.8139 16.7494 17.3209C15.2424 18.8279 14.3958 20.8718 14.3958 23.003C14.3958 25.1342 15.2424 27.1781 16.7494 28.6851C18.2564 30.1921 20.3003 31.0387 22.4315 31.0387ZM32.4762 23.003C32.4762 25.667 31.4179 28.2219 29.5342 30.1057C27.6504 31.9894 25.0955 33.0477 22.4315 33.0477C19.7675 33.0477 17.2126 31.9894 15.3289 30.1057C13.4452 28.2219 12.3869 25.667 12.3869 23.003C12.3869 20.339 13.4452 17.7841 15.3289 15.9004C17.2126 14.0166 19.7675 12.9584 22.4315 12.9584C25.0955 12.9584 27.6504 14.0166 29.5342 15.9004C31.4179 17.7841 32.4762 20.339 32.4762 23.003Z" fill="white"/>
<path d="M19.2936 24.8995C19.388 26.0968 20.3342 27.0289 22.0317 27.1414V28.0254H22.7851V27.1354C24.5429 27.0129 25.5695 26.0727 25.5695 24.7106C25.5695 23.4691 24.786 22.8303 23.3797 22.5008L22.7851 22.3602V19.9495C23.5404 20.0358 24.0186 20.4477 24.1331 21.0182H25.455C25.3605 19.8631 24.3701 18.9611 22.7851 18.8626V17.9807H22.0317V18.8847C20.5311 19.0314 19.5105 19.9334 19.5105 21.2111C19.5105 22.3401 20.2699 23.0593 21.5335 23.3526L22.0317 23.4751V26.0305C21.2603 25.914 20.748 25.4881 20.6335 24.8995H19.2936ZM22.0257 22.1794C21.2844 22.0086 20.8826 21.6571 20.8826 21.1307C20.8826 20.5401 21.3166 20.0981 22.0317 19.9696V22.1794H22.0257ZM22.8936 23.678C23.7956 23.887 24.2094 24.2245 24.2094 24.8211C24.2094 25.5021 23.6931 25.9682 22.7851 26.0546V23.6539L22.8936 23.678Z" fill="white"/>
<path d="M2.34224 0.904785C1.80944 0.904785 1.29846 1.11644 0.921715 1.49319C0.544967 1.86993 0.333313 2.38091 0.333313 2.91371L0.333313 18.9851C0.333313 19.5179 0.544967 20.0289 0.921715 20.4057C1.29846 20.7824 1.80944 20.9941 2.34224 20.9941H10.5447C10.6626 20.3017 10.8353 19.632 11.063 18.9851H6.3601C6.3601 17.9195 5.93679 16.8976 5.1833 16.1441C4.4298 15.3906 3.40784 14.9673 2.34224 14.9673V6.93157C3.40784 6.93157 4.4298 6.50826 5.1833 5.75477C5.93679 5.00127 6.3601 3.97932 6.3601 2.91371H26.4494C26.4494 3.97932 26.8727 5.00127 27.6262 5.75477C28.3797 6.50826 29.4016 6.93157 30.4672 6.93157V14.0191C31.2306 14.7021 31.9076 15.4816 32.4762 16.3374V2.91371C32.4762 2.38091 32.2645 1.86993 31.8878 1.49319C31.511 1.11644 31 0.904785 30.4672 0.904785L2.34224 0.904785Z" fill="white"/>
<path d="M20.4186 11.1162L20.4226 10.9494C20.4222 10.2575 20.2431 9.57747 19.9027 8.97511C19.5623 8.37274 19.0722 7.86849 18.4797 7.51118C17.8872 7.15388 17.2124 6.95563 16.5208 6.93564C15.8292 6.91565 15.1442 7.07459 14.5321 7.39708C13.9199 7.71957 13.4014 8.19467 13.0268 8.77637C12.6522 9.35807 12.4341 10.0266 12.3937 10.7174C12.3534 11.4081 12.4921 12.0975 12.7963 12.7189C13.1006 13.3403 13.5603 13.8725 14.1307 14.2642C15.8672 12.6132 18.0563 11.5172 20.4186 11.1162Z" fill="white"/>
</g>
<defs>
<clipPath id="clip0_138_183">
<rect width="32.1429" height="32.1429" fill="white" transform="translate(0.333313 0.904785)"/>
</clipPath>
</defs>
</svg>
