<svg width="28" height="32" viewBox="0 0 28 32" fill="none" xmlns="http://www.w3.org/2000/svg">
<g clip-path="url(#clip0_138_218)">
<path d="M25.25 15.2367V7.13628C25.25 6.43306 24.9603 5.75863 24.4445 5.26138C23.9288 4.76412 23.2293 4.48477 22.5 4.48477H16.7525C16.175 2.94689 14.6625 1.83325 12.875 1.83325C11.0875 1.83325 9.575 2.94689 8.9975 4.48477H3.25C1.7375 4.48477 0.5 5.67795 0.5 7.13628V25.6969C0.5 26.4001 0.789731 27.0745 1.30546 27.5718C1.82118 28.069 2.52065 28.3484 3.25 28.3484H11.6512C13.3837 29.9923 15.7487 30.9999 18.375 30.9999C23.6962 30.9999 28 26.8503 28 21.7196C28 19.1874 26.955 16.9071 25.25 15.2367ZM12.875 4.48477C13.6313 4.48477 14.25 5.08136 14.25 5.81052C14.25 6.53969 13.6313 7.13628 12.875 7.13628C12.1187 7.13628 11.5 6.53969 11.5 5.81052C11.5 5.08136 12.1187 4.48477 12.875 4.48477ZM4.625 9.7878H21.125V12.4393H4.625V9.7878ZM8.86 23.0454H4.625V20.3939H8.86C8.79125 20.8314 8.75 21.2689 8.75 21.7196C8.75 22.1704 8.79125 22.6079 8.86 23.0454ZM4.625 17.7423V15.0908H11.6512C10.8125 15.8465 10.18 16.748 9.685 17.7423H4.625ZM18.375 28.3484C14.58 28.3484 11.5 25.3787 11.5 21.7196C11.5 18.0605 14.58 15.0908 18.375 15.0908C22.17 15.0908 25.25 18.0605 25.25 21.7196C25.25 25.3787 22.17 28.3484 18.375 28.3484ZM19.0625 22.0511L22.995 24.2916L21.9638 25.909L17 23.0454V16.4166H19.0625V22.0511Z" fill="white"/>
</g>
<defs>
<clipPath id="clip0_138_218">
<rect width="27.5" height="31.6667" fill="white" transform="translate(0.5 0.166626)"/>
</clipPath>
</defs>
</svg>
