<svg width="32" height="32" viewBox="0 0 32 32" fill="none" xmlns="http://www.w3.org/2000/svg">
<path d="M14.6976 3.38076C14.7903 3.30581 14.8987 3.25254 15.0147 3.22486C15.1307 3.19717 15.2514 3.19577 15.368 3.22076L26.568 5.61916C26.7466 5.65791 26.9066 5.75669 27.0213 5.89904C27.136 6.0414 27.1985 6.21874 27.1984 6.40156V25.6016C27.1984 25.7846 27.1357 25.9621 27.0207 26.1045C26.9057 26.2469 26.7453 26.3455 26.5664 26.384L15.3664 28.784C15.2501 28.8087 15.1297 28.8072 15.0141 28.7796C14.8984 28.7519 14.7904 28.6989 14.6978 28.6242C14.6053 28.5496 14.5305 28.4553 14.479 28.3481C14.4275 28.241 14.4005 28.1237 14.4 28.0048V4.00476C14.4 3.88538 14.4268 3.76752 14.4782 3.65983C14.5297 3.55213 14.6047 3.45732 14.6976 3.38236M20.0032 16.0032C20.0032 15.6849 19.8768 15.3797 19.6517 15.1546C19.4267 14.9296 19.1214 14.8032 18.8032 14.8032C18.4849 14.8032 18.1797 14.9296 17.9547 15.1546C17.7296 15.3797 17.6032 15.6849 17.6032 16.0032C17.6032 16.3214 17.7296 16.6266 17.9547 16.8517C18.1797 17.0767 18.4849 17.2032 18.8032 17.2032C19.1214 17.2032 19.4267 17.0767 19.6517 16.8517C19.8768 16.6266 20.0032 16.3214 20.0032 16.0032ZM12.8032 4.80636H5.59999C5.38781 4.80636 5.18433 4.89064 5.0343 5.04067C4.88427 5.1907 4.79999 5.39418 4.79999 5.60636V26.3984C4.79999 26.6105 4.88427 26.814 5.0343 26.964C5.18433 27.1141 5.38781 27.1984 5.59999 27.1984H12.8032V4.80636Z" fill="white"/>
</svg>
