<svg width="33" height="28" viewBox="0 0 33 28" fill="none" xmlns="http://www.w3.org/2000/svg">
<path d="M29.6677 0H2.47231C1.81661 0 1.18777 0.261368 0.724122 0.726606C0.260474 1.19184 0 1.82284 0 2.48079V24.8079C0 25.4658 0.260474 26.0968 0.724122 26.5621C1.18777 27.0273 1.81661 27.2887 2.47231 27.2887H4.54132C4.77527 27.2888 5.00444 27.2222 5.2022 27.0968C5.39996 26.9714 5.55819 26.7922 5.65849 26.5801C6.2596 25.3066 7.20865 24.2306 8.39526 23.4771C9.58186 22.7235 10.9573 22.3235 12.3615 22.3235C13.7658 22.3235 15.1412 22.7235 16.3278 23.4771C17.5144 24.2306 18.4635 25.3066 19.0646 26.5801C19.1649 26.7922 19.3231 26.9714 19.5209 27.0968C19.7186 27.2222 19.9478 27.2888 20.1818 27.2887H29.6677C30.3234 27.2887 30.9522 27.0273 31.4159 26.5621C31.8795 26.0968 32.14 25.4658 32.14 24.8079V2.48079C32.14 1.82284 31.8795 1.19184 31.4159 0.726606C30.9522 0.261368 30.3234 0 29.6677 0ZM8.65308 16.1251C8.65308 15.3891 8.87057 14.6697 9.27807 14.0578C9.68556 13.4458 10.2647 12.9689 10.9424 12.6872C11.62 12.4056 12.3657 12.3319 13.085 12.4754C13.8044 12.619 14.4652 12.9734 14.9838 13.4939C15.5025 14.0143 15.8557 14.6773 15.9987 15.3992C16.1418 16.121 16.0684 16.8692 15.7877 17.5492C15.507 18.2291 15.0317 18.8103 14.4218 19.2192C13.812 19.6281 13.095 19.8463 12.3615 19.8463C11.378 19.8463 10.4347 19.4543 9.73926 18.7564C9.04379 18.0585 8.65308 17.112 8.65308 16.1251ZM29.6677 24.8079H20.9265C19.8942 23.027 18.3382 21.6102 16.4718 20.7518C17.4075 19.9157 18.0679 18.8141 18.3655 17.5928C18.663 16.3715 18.5837 15.0883 18.1379 13.9134C17.6921 12.7384 16.901 11.7271 15.8694 11.0136C14.8378 10.3 13.6145 9.91792 12.3615 9.91792C11.1086 9.91792 9.88525 10.3 8.85365 11.0136C7.82206 11.7271 7.03094 12.7384 6.58518 13.9134C6.13941 15.0883 6.06004 16.3715 6.3576 17.5928C6.65515 18.8141 7.31558 19.9157 8.25133 20.7518C6.38489 21.6102 4.82883 23.027 3.79654 24.8079H2.47231V2.48079H29.6677V24.8079ZM4.94462 8.68276V6.20197C4.94462 5.873 5.07485 5.5575 5.30668 5.32488C5.5385 5.09226 5.85292 4.96158 6.18077 4.96158H25.9592C26.2871 4.96158 26.6015 5.09226 26.8333 5.32488C27.0651 5.5575 27.1954 5.873 27.1954 6.20197V21.0867C27.1954 21.4157 27.0651 21.7312 26.8333 21.9638C26.6015 22.1964 26.2871 22.3271 25.9592 22.3271H23.4869C23.1591 22.3271 22.8447 22.1964 22.6128 21.9638C22.381 21.7312 22.2508 21.4157 22.2508 21.0867C22.2508 20.7577 22.381 20.4422 22.6128 20.2096C22.8447 19.977 23.1591 19.8463 23.4869 19.8463H24.7231V7.44237H7.41692V8.68276C7.41692 9.01173 7.28669 9.32723 7.05486 9.55985C6.82304 9.79247 6.50862 9.92316 6.18077 9.92316C5.85292 9.92316 5.5385 9.79247 5.30668 9.55985C5.07485 9.32723 4.94462 9.01173 4.94462 8.68276Z" fill="white"/>
</svg>
