<svg width="32" height="32" viewBox="0 0 32 32" fill="none" xmlns="http://www.w3.org/2000/svg">
<path d="M16 16.6597C14.7752 16.6597 13.6006 17.1462 12.7345 18.0123C11.8685 18.8783 11.3819 20.0529 11.3819 21.2777C11.3819 22.5025 11.8685 23.6771 12.7345 24.5432C13.6006 25.4092 14.7752 25.8958 16 25.8958C17.2248 25.8958 18.3994 25.4092 19.2654 24.5432C20.1315 23.6771 20.618 22.5025 20.618 21.2777C20.618 20.0529 20.1315 18.8783 19.2654 18.0123C18.3994 17.1462 17.2248 16.6597 16 16.6597ZM14.0208 21.2777C14.0208 20.7528 14.2293 20.2494 14.6005 19.8782C14.9717 19.5071 15.4751 19.2986 16 19.2986C16.5249 19.2986 17.0283 19.5071 17.3995 19.8782C17.7706 20.2494 17.9791 20.7528 17.9791 21.2777C17.9791 21.8026 17.7706 22.306 17.3995 22.6772C17.0283 23.0484 16.5249 23.2569 16 23.2569C15.4751 23.2569 14.9717 23.0484 14.6005 22.6772C14.2293 22.306 14.0208 21.8026 14.0208 21.2777Z" fill="white"/>
<path d="M23.2912 6.9169L19.0967 1.03613L3.67373 13.3571L2.81873 13.3479V13.3611H2.14581V29.1944H29.8541V13.3611H28.5848L26.0594 5.97349L23.2912 6.9169ZM25.7969 13.3611H12.5655L22.4204 10.0018L24.4286 9.35919L25.7969 13.3611ZM20.684 7.8062L10.5111 11.2737L18.5676 4.83745L20.684 7.8062ZM4.7847 24.1396V18.4132C5.34137 18.216 5.847 17.8969 6.26472 17.4795C6.68244 17.062 7.00172 16.5565 7.19929 16H24.8007C24.9982 16.5567 25.3174 17.0624 25.7351 17.4801C26.1528 17.8978 26.6585 18.2171 27.2153 18.4145V24.1409C26.6585 24.3384 26.1528 24.6576 25.7351 25.0754C25.3174 25.4931 24.9982 25.9988 24.8007 26.5555H7.20192C7.00425 25.9983 6.68466 25.4922 6.26646 25.0743C5.84827 24.6563 5.34204 24.337 4.7847 24.1396Z" fill="white"/>
</svg>
