<svg width="32" height="32" viewBox="0 0 32 32" fill="none" xmlns="http://www.w3.org/2000/svg">
<path d="M4.91667 14.4451V22.3333L4.92458 22.6119C4.99566 23.8214 5.52624 24.9581 6.40775 25.7892C7.28927 26.6204 8.45508 27.0833 9.66667 27.0833H16V20.7499L16.0079 20.4713C16.0761 19.3098 16.5683 18.2137 17.391 17.3909C18.2137 16.5682 19.3098 16.0761 20.4713 16.0079L20.75 15.9999H27.0833V9.66661L27.0754 9.38794C27.0043 8.17844 26.4738 7.04182 25.5922 6.21064C24.7107 5.37946 23.5449 4.91654 22.3333 4.91661H15.1497C15.5033 5.33504 15.7566 5.82864 15.8905 6.35982C16.0244 6.89099 16.0352 7.44572 15.9222 7.98172C15.8092 8.51772 15.5753 9.02085 15.2384 9.45278C14.9015 9.8847 14.4704 10.234 13.9781 10.4741L10.9824 11.9339L10.2826 13.9606C10.1231 14.4218 9.84896 14.8349 9.48597 15.161C9.12297 15.4871 8.68302 15.7156 8.20745 15.825C7.73188 15.9344 7.23631 15.9211 6.76729 15.7864C6.29828 15.6516 5.87122 15.3998 5.52625 15.0547L4.91667 14.4451ZM26.3582 18.6172C26.6102 18.3111 26.8024 17.9604 26.925 17.5833H20.75L20.5014 17.5928C19.7474 17.6519 19.0395 17.979 18.5057 18.5148C17.9719 19.0506 17.6475 19.7598 17.5912 20.514L17.5833 20.7499L17.5849 26.9249C18.0536 26.7729 18.4842 26.5101 18.8389 26.1554L26.1555 18.8389L26.3582 18.6172ZM13.6852 5.52936L10.6341 2.47827C10.3665 2.21077 10.0388 2.01108 9.67846 1.89583C9.31807 1.78057 8.93536 1.75309 8.5622 1.81567C8.18904 1.87825 7.83623 2.02908 7.53316 2.2556C7.23009 2.48212 6.98552 2.77778 6.81983 3.11794L5.55 5.72411C5.36595 6.10137 5.03962 6.39012 4.64275 6.52686L2.89792 7.12852C2.64406 7.21619 2.41667 7.367 2.23714 7.56675C2.05762 7.76651 1.93186 8.00865 1.87168 8.27039C1.81151 8.53214 1.81891 8.80489 1.89318 9.06298C1.96746 9.32108 2.10616 9.55605 2.29625 9.74577L3.79725 11.2468L1.75 13.2924V14.4119H2.86942L4.91667 12.3678L6.41608 13.8672C6.60581 14.0573 6.84078 14.196 7.09887 14.2703C7.35697 14.3445 7.62972 14.3519 7.89147 14.2918C8.15321 14.2316 8.39535 14.1058 8.5951 13.9263C8.79486 13.7468 8.94566 13.5194 9.03333 13.2655L9.635 11.5207C9.7721 11.1244 10.0608 10.7987 10.4377 10.615L13.0455 9.34361C13.3857 9.17792 13.6813 8.93335 13.9078 8.63028C14.1344 8.32721 14.2852 7.9744 14.3478 7.60124C14.4104 7.22808 14.3829 6.84537 14.2676 6.48498C14.1524 6.12459 13.9527 5.79696 13.6852 5.52936Z" fill="white"/>
</svg>
