<svg width="32" height="32" viewBox="0 0 32 32" fill="none" xmlns="http://www.w3.org/2000/svg">
<g clip-path="url(#clip0_138_199)">
<path d="M8.62127 16.5388H23.0487V19.2484H24.4563V15.1313H16.5388V12.3162H15.1312V15.1313H7.21371V19.2484H8.62127V16.5388Z" fill="white"/>
<path d="M12.3161 20.2336H3.51887C3.05224 20.2336 2.60472 20.419 2.27476 20.749C1.9448 21.0789 1.75943 21.5265 1.75943 21.9931V27.2714C1.75943 27.7381 1.9448 28.1856 2.27476 28.5155C2.60472 28.8455 3.05224 29.0309 3.51887 29.0309H12.3161C12.7827 29.0309 13.2303 28.8455 13.5602 28.5155C13.8902 28.1856 14.0755 27.7381 14.0755 27.2714V21.9931C14.0755 21.5265 13.8902 21.0789 13.5602 20.749C13.2303 20.419 12.7827 20.2336 12.3161 20.2336ZM3.51887 27.2714V21.9931H12.3161V27.2714H3.51887Z" fill="white"/>
<path d="M28.1511 20.2336H19.3539C18.8873 20.2336 18.4397 20.419 18.1098 20.749C17.7798 21.0789 17.5945 21.5265 17.5945 21.9931V27.2714C17.5945 27.7381 17.7798 28.1856 18.1098 28.5155C18.4397 28.8455 18.8873 29.0309 19.3539 29.0309H28.1511C28.6178 29.0309 29.0653 28.8455 29.3952 28.5155C29.7252 28.1856 29.9106 27.7381 29.9106 27.2714V21.9931C29.9106 21.5265 29.7252 21.0789 29.3952 20.749C29.0653 20.419 28.6178 20.2336 28.1511 20.2336ZM19.3539 27.2714V21.9931H28.1511V27.2714H19.3539Z" fill="white"/>
<path d="M11.4364 11.4364H20.2336C20.7002 11.4364 21.1478 11.251 21.4777 10.9211C21.8077 10.5911 21.9931 10.1436 21.9931 9.67694V4.3986C21.9931 3.93197 21.8077 3.48445 21.4777 3.15449C21.1478 2.82453 20.7002 2.63916 20.2336 2.63916H11.4364C10.9698 2.63916 10.5222 2.82453 10.1923 3.15449C9.86231 3.48445 9.67694 3.93197 9.67694 4.3986V9.67694C9.67694 10.1436 9.86231 10.5911 10.1923 10.9211C10.5222 11.251 10.9698 11.4364 11.4364 11.4364ZM11.4364 4.3986H20.2336V9.67694H11.4364V4.3986Z" fill="white"/>
</g>
<defs>
<clipPath id="clip0_138_199">
<rect width="31.67" height="31.67" fill="white"/>
</clipPath>
</defs>
</svg>
