<svg width="22" height="22" viewBox="0 0 22 22" fill="none" xmlns="http://www.w3.org/2000/svg">
<g clip-path="url(#clip0_943_582)">
<path d="M11.2261 6.82617C10.7315 6.82675 10.241 6.91574 9.77777 7.08895L15.1555 12.4667C15.331 11.9977 15.4201 11.5008 15.4183 11.0001C15.4135 9.89139 14.9697 8.82979 14.184 8.04756C13.3983 7.26532 12.3348 6.82616 11.2261 6.82617Z" fill="#387ADF"/>
<path d="M20.955 10.7128C18.8955 6.90557 15.2839 4.60168 11.2872 4.60168C10.199 4.60424 9.11817 4.77957 8.08499 5.12113L9.06888 6.11113C9.79357 5.92384 10.5387 5.82736 11.2872 5.82391C14.7278 5.82391 17.8567 7.74279 19.7205 10.9756C19.0368 12.1749 18.1304 13.2328 17.05 14.0922L17.9178 14.96C19.1681 13.9513 20.2066 12.7051 20.9733 11.2934L21.1322 11L20.955 10.7128Z" fill="#387ADF"/>
<path d="M2.9761 3.53226L5.70166 6.25782C3.97889 7.36705 2.57088 8.90134 1.61333 10.7128L1.45444 11L1.61333 11.2934C3.67277 15.1006 7.28444 17.4045 11.2811 17.4045C12.8411 17.4042 14.3808 17.0511 15.785 16.3717L18.8405 19.4273L19.91 18.5106L4.0211 2.6217L2.9761 3.53226ZM8.04833 8.60448C7.47659 9.41078 7.20861 10.3934 7.29184 11.3783C7.37507 12.3632 7.80413 13.2869 8.50306 13.9859C9.20199 14.6848 10.1257 15.1139 11.1106 15.1971C12.0955 15.2803 13.0781 15.0123 13.8844 14.4406L14.8622 15.4184C13.7303 15.9022 12.5121 16.1517 11.2811 16.1517C7.84055 16.1517 4.71166 14.2328 2.84777 11C3.74226 9.41617 5.03049 8.09005 6.58777 7.15004L8.04833 8.60448Z" fill="#387ADF"/>
</g>
<defs>
<clipPath id="clip0_943_582">
<rect width="22" height="22" fill="white"/>
</clipPath>
</defs>
</svg>
