<svg width="36" height="36" viewBox="0 0 36 36" fill="none" xmlns="http://www.w3.org/2000/svg">
<circle cx="18" cy="18" r="18" fill="#BE1833" fill-opacity="0.8"/>
<path d="M21.444 21.5745H24.3382C24.0951 18.3673 22.7143 16.3753 20.9432 15.197L21.7496 13.4369C21.774 13.381 21.7841 13.32 21.7791 13.2593C21.7741 13.1986 21.7541 13.14 21.7208 13.0889C21.6876 13.0378 21.6423 12.9958 21.5888 12.9665C21.5353 12.9373 21.4754 12.9218 21.4145 12.9214H16.3663C16.3053 12.9218 16.2454 12.9373 16.192 12.9665C16.1385 12.9958 16.0931 13.0378 16.0599 13.0889C16.0267 13.14 16.0067 13.1986 16.0017 13.2593C15.9967 13.32 16.0068 13.381 16.0312 13.4369L16.473 14.3943H20.1994L19.868 15.1307H19.1868C19.3948 15.6901 19.5478 16.2685 19.6434 16.8576C19.7053 17.2231 19.7447 17.592 19.7612 17.9623L19.1794 18.371C19.181 17.8947 19.1416 17.4192 19.0616 16.9497C18.9599 16.3248 18.7843 15.7142 18.5387 15.1307H18.1705C17.8307 15.5601 17.5254 16.0156 17.2573 16.4931C17.0412 16.9027 16.8578 17.3287 16.7087 17.7671L16.2042 17.432C16.3515 17.0083 16.5325 16.597 16.7455 16.2022C16.9608 15.832 17.1968 15.4742 17.4525 15.1307H16.8081L16.8376 15.1933C14.886 16.4931 13.4021 18.776 13.4021 22.5871C13.3971 22.6672 13.4081 22.7475 13.4343 22.8234C13.4606 22.8992 13.5016 22.9691 13.555 23.029C13.6084 23.0889 13.6731 23.1377 13.7455 23.1724C13.8178 23.2072 13.8964 23.2272 13.9765 23.2315H16.9223C16.7958 23.0998 16.7084 22.9356 16.67 22.7571C16.6316 22.5786 16.6437 22.393 16.7049 22.2209C16.766 22.0489 16.8739 21.8973 17.0163 21.7832C17.1588 21.669 17.3302 21.5967 17.5114 21.5745C17.4232 21.4249 17.3762 21.2547 17.3752 21.0811C17.3752 20.8174 17.4799 20.5645 17.6664 20.3781C17.8528 20.1916 18.1057 20.0869 18.3694 20.0869H20.5787C20.8423 20.0869 21.0952 20.1916 21.2817 20.3781C21.4681 20.5645 21.5728 20.8174 21.5728 21.0811C21.5747 21.2541 21.5302 21.4245 21.444 21.5745Z" fill="white"/>
<path d="M20.2324 22.4932C20.2324 22.3956 20.1936 22.3019 20.1245 22.2328C20.0555 22.1638 19.9618 22.125 19.8641 22.125H17.6548C17.5572 22.125 17.4635 22.1638 17.3945 22.2328C17.3254 22.3019 17.2866 22.3956 17.2866 22.4932C17.2866 22.5909 17.3254 22.6845 17.3945 22.7536C17.4635 22.8226 17.5572 22.8614 17.6548 22.8614H19.8641C19.9618 22.8614 20.0555 22.8226 20.1245 22.7536C20.1936 22.6845 20.2324 22.5909 20.2324 22.4932Z" fill="#FFBF43"/>
<path d="M20.5786 20.6528H18.3693C18.2717 20.6528 18.178 20.6916 18.1089 20.7607C18.0399 20.8297 18.0011 20.9234 18.0011 21.021C18.0011 21.1187 18.0399 21.2124 18.1089 21.2814C18.178 21.3505 18.2717 21.3893 18.3693 21.3893H20.5786C20.6763 21.3893 20.7699 21.3505 20.839 21.2814C20.908 21.2124 20.9468 21.1187 20.9468 21.021C20.9468 20.9234 20.908 20.8297 20.839 20.7607C20.7699 20.6916 20.6763 20.6528 20.5786 20.6528Z" fill="#FFBF43"/>
<path d="M20.3798 23.5986H18.1705C18.0728 23.5986 17.9791 23.6374 17.9101 23.7065C17.841 23.7755 17.8022 23.8692 17.8022 23.9668C17.8022 24.0645 17.841 24.1582 17.9101 24.2272C17.9791 24.2963 18.0728 24.3351 18.1705 24.3351H20.3798C20.4774 24.3351 20.5711 24.2963 20.6401 24.2272C20.7092 24.1582 20.748 24.0645 20.748 23.9668C20.748 23.8692 20.7092 23.7755 20.6401 23.7065C20.5711 23.6374 20.4774 23.5986 20.3798 23.5986Z" fill="#FFBF43"/>
<path d="M24.3198 23.5986H21.7423C21.6446 23.5986 21.551 23.6374 21.4819 23.7065C21.4129 23.7755 21.3741 23.8692 21.3741 23.9668C21.3741 24.0645 21.4129 24.1582 21.4819 24.2272C21.551 24.2963 21.6446 24.3351 21.7423 24.3351H24.3198C24.4175 24.3351 24.5111 24.2963 24.5802 24.2272C24.6492 24.1582 24.688 24.0645 24.688 23.9668C24.688 23.8692 24.6492 23.7755 24.5802 23.7065C24.5111 23.6374 24.4175 23.5986 24.3198 23.5986Z" fill="#FFBF43"/>
<path d="M24.688 22.125H22.1105C22.0129 22.125 21.9192 22.1638 21.8502 22.2328C21.7811 22.3019 21.7423 22.3956 21.7423 22.4932C21.7423 22.5909 21.7811 22.6845 21.8502 22.7536C21.9192 22.8226 22.0129 22.8614 22.1105 22.8614H24.688C24.7857 22.8614 24.8794 22.8226 24.9484 22.7536C25.0175 22.6845 25.0563 22.5909 25.0563 22.4932C25.0563 22.3956 25.0175 22.3019 24.9484 22.2328C24.8794 22.1638 24.7857 22.125 24.688 22.125Z" fill="#FFBF43"/>
<line x1="6" y1="18.4771" x2="12.2791" y2="18.4771" stroke="white"/>
</svg>
