<?xml version="1.0" encoding="UTF-8"?>
<svg version="1.1" xmlns="http://www.w3.org/2000/svg" width="262" height="257">
<path d="M0 0 C86.46 0 172.92 0 262 0 C262 84.81 262 169.62 262 257 C175.54 257 89.08 257 0 257 C0 172.19 0 87.38 0 0 Z " fill="#377ADF" transform="translate(0,0)"/>
<path d="M0 0 C7.87530019 6.7502573 7.87530019 6.7502573 10.68907166 9.56208801 C11.32975586 10.19995239 11.97044006 10.83781677 12.63053894 11.49501038 C13.3066774 12.17317307 13.98281586 12.85133575 14.67944336 13.55004883 C15.77825333 14.64623032 15.77825333 14.64623032 16.89926147 15.76455688 C19.29862905 18.15955389 21.69435702 20.55815309 24.08984375 22.95703125 C25.76121146 24.62772498 27.43272755 26.29827026 29.10438538 27.96867371 C32.59506218 31.45788042 36.08393394 34.94887934 39.5715332 38.44116211 C44.05301282 42.9283652 48.53900231 47.41102867 53.02632809 51.89238453 C56.47234836 55.3348032 59.91599814 58.77958523 63.35891914 62.22510338 C65.01328589 63.88013914 66.66840109 65.53442707 68.32426262 67.1879673 C70.62736824 69.48855014 72.9272726 71.79228483 75.22631836 74.09692383 C75.91662643 74.78520767 76.60693451 75.47349152 77.31816101 76.18263245 C77.93910645 76.80639771 78.56005188 77.43016296 79.19981384 78.0728302 C79.7437979 78.61719129 80.28778196 79.16155237 80.84825039 79.72240925 C82 81 82 81 82 82 C54.94 82 27.88 82 0 82 C0 54.94 0 27.88 0 0 Z " fill="#FBFCFE" transform="translate(128,135)"/>
<path d="M0 0 C26.73 0 53.46 0 81 0 C74.24974268 7.87530021 74.24974268 7.87530021 71.47587585 10.65110779 C70.84642563 11.28337784 70.2169754 11.91564789 69.56845093 12.56707764 C68.89963898 13.23386536 68.23082703 13.90065308 67.54174805 14.58764648 C66.82071396 15.31043289 66.09967987 16.0332193 65.35679626 16.77790833 C62.99426441 19.14480999 60.62813153 21.50807269 58.26171875 23.87109375 C56.61344528 25.52004122 54.96532025 27.16913708 53.31733704 28.81837463 C49.87520868 32.26197297 46.43128849 35.70376644 42.98608398 39.14428711 C38.5594148 43.56523246 34.13728595 47.99068798 29.71646404 52.41747952 C26.32036849 55.81717666 22.92190965 59.21450327 19.52271461 62.61110115 C17.89000756 64.24313921 16.25804828 65.87592569 14.62683678 67.50945854 C12.35738684 69.78143128 10.08478537 72.0502024 7.8112793 74.31811523 C7.13234619 74.99907257 6.45341309 75.68002991 5.75390625 76.38162231 C1.11426759 81 1.11426759 81 0 81 C0 54.27 0 27.54 0 0 Z " fill="#FDFEFE" transform="translate(128,44)"/>
<path d="M0 0 C4.95 0 9.9 0 15 0 C15 26.73 15 53.46 15 81 C10.05 81 5.1 81 0 81 C0 54.27 0 27.54 0 0 Z " fill="#FEFEFE" transform="translate(103,44)"/>
<path d="M0 0 C4.95 0 9.9 0 15 0 C15 26.73 15 53.46 15 81 C10.05 81 5.1 81 0 81 C0 54.27 0 27.54 0 0 Z " fill="#FDFDFE" transform="translate(78,44)"/>
<path d="M0 0 C4.95 0 9.9 0 15 0 C15 26.73 15 53.46 15 81 C10.05 81 5.1 81 0 81 C0 54.27 0 27.54 0 0 Z " fill="#F9FBFE" transform="translate(53,44)"/>
<path d="M0 0 C2.9375 2.0625 2.9375 2.0625 5 5 C5.06641554 8.85210127 4.87229157 10.99848005 2.3125 13.9375 C-0.7058606 15.32431433 -2.70970079 15.4112874 -6 15 C-8.375 14 -8.375 14 -10 12 C-10.5659239 7.54334931 -10.82483134 5.26897129 -8.375 1.5 C-5.23686002 -0.48198314 -3.65126535 -0.67064058 0 0 Z " fill="#F5F8FD" transform="translate(63,135)"/>
<path d="M0 0 C2.4375 1.625 2.4375 1.625 4 4 C4.5625 6.9375 4.5625 6.9375 4 10 C1.9375 12.9375 1.9375 12.9375 -1 15 C-4.54361243 15 -6.86591591 14.65850044 -9.9375 12.875 C-11.6712306 9.81547541 -11.42145216 7.43182475 -11 4 C-8.11188513 -0.5054592 -5.11821063 -0.73117295 0 0 Z " fill="#87E55F" transform="translate(89,196)"/>
<path d="M0 0 C1.84375 0.6015625 1.84375 0.6015625 3.90625 2.2265625 C5.27176951 5.68587858 4.74977977 8.04215982 3.84375 11.6015625 C2.71875 13.5390625 2.71875 13.5390625 0.84375 14.6015625 C-3.05129791 15.09729587 -5.25118717 15.18173098 -8.59375 13.0390625 C-10.76021028 9.65938446 -10.71913002 7.54172263 -10.15625 3.6015625 C-7.496381 -0.8315525 -4.71539813 -0.89733323 0 0 Z " fill="#F6F9FD" transform="translate(88.15625,165.3984375)"/>
<path d="M0 0 C2.4375 1.625 2.4375 1.625 4 4 C4.5625 6.9375 4.5625 6.9375 4 10 C1.9375 12.9375 1.9375 12.9375 -1 15 C-4.625 15.125 -4.625 15.125 -8 14 C-10 11.875 -10 11.875 -11 9 C-10.875 5.3125 -10.875 5.3125 -10 2 C-6.2794164 -0.48038907 -4.40203429 -0.46337203 0 0 Z " fill="#F7FAFD" transform="translate(114,196)"/>
<path d="M0 0 C3.375 1.0625 3.375 1.0625 5.3125 2.75 C6.71317538 5.79852877 6.8592732 7.74176952 6.375 11.0625 C4.8125 13.4375 4.8125 13.4375 2.375 15.0625 C-1.59987617 15.63033945 -3.68989221 15.68590519 -7.0625 13.4375 C-9.12291771 10.30566508 -9.3017545 8.74705227 -8.625 5.0625 C-5.92665364 1.21940065 -4.75860157 0.08204485 0 0 Z " fill="#87E55E" transform="translate(111.625,164.9375)"/>
<path d="M0 0 C2.875 1.5625 2.875 1.5625 5 4 C5.64269755 7.99900698 5.63913895 10.04129157 3.375 13.4375 C0.24316508 15.49791771 -1.31544773 15.6767545 -5 15 C-8.36344489 12.51397551 -9.80057749 11.08574477 -10.5625 6.9375 C-9.40268526 0.88068969 -5.92544892 -0.96742023 0 0 Z " fill="#F9FBFE" transform="translate(113,135)"/>
<path d="M0 0 C2.9375 2.0625 2.9375 2.0625 5 5 C5.06641554 8.85210127 4.87229157 10.99848005 2.3125 13.9375 C-0.73602877 15.33817538 -2.67926952 15.4842732 -6 15 C-8.375 13.4375 -8.375 13.4375 -10 11 C-10.56783945 7.02512383 -10.62340519 4.93510779 -8.375 1.5625 C-5.24316508 -0.49791771 -3.68455227 -0.6767545 0 0 Z " fill="#88E75C" transform="translate(88,135)"/>
<path d="M0 0 C2 1 2 1 3 3 C3.75912409 9.83211679 3.75912409 9.83211679 1.375 13.5 C-1.72140596 15.45562482 -3.39853135 15.60024477 -7 15 C-9.375 13.5 -9.375 13.5 -11 11 C-11.6293407 7.48559179 -11.63147635 4.2629527 -10 1 C-6.73794446 -0.63102777 -3.56444611 -0.51981506 0 0 Z " fill="#F8FAFD" transform="translate(64,196)"/>
<path d="M0 0 C1.875 1.0625 1.875 1.0625 3 3 C3.53468062 6.55711138 3.62733051 9.74533898 2 13 C-1.26205554 14.63102777 -4.43555389 14.51981506 -8 14 C-10 13 -10 13 -11 11 C-11.39302445 7.90493248 -11.62908496 5.95551234 -11 3 C-7.56705737 -1.13972494 -5.05326616 -1.64780418 0 0 Z " fill="#F9FBFE" transform="translate(64,166)"/>
</svg>
