<svg width="350" height="302" viewBox="0 0 350 302" fill="none" xmlns="http://www.w3.org/2000/svg">
<path d="M44 93.5556V65.7778C44 58.4107 46.9266 51.3453 52.1359 46.1359C57.3453 40.9266 64.4107 38 71.7778 38H99.5556M238.444 38H266.222C273.589 38 280.655 40.9266 285.864 46.1359C291.073 51.3453 294 58.4107 294 65.7778V93.5556M294 232.444V260.222C294 267.589 291.073 274.655 285.864 279.864C280.655 285.073 273.589 288 266.222 288H238.444M99.5556 288H71.7778C64.4107 288 57.3453 285.073 52.1359 279.864C46.9266 274.655 44 267.589 44 260.222V232.444" stroke="white" stroke-width="2" stroke-linecap="round" stroke-linejoin="round"/>
</svg>
