<svg width="15" height="16" viewBox="0 0 15 16" fill="none" xmlns="http://www.w3.org/2000/svg">
<g clip-path="url(#clip0_460_709)">
<path d="M7.5 8.3125C6.91984 8.3125 6.36344 8.54297 5.9532 8.9532C5.54297 9.36344 5.3125 9.91984 5.3125 10.5C5.3125 11.0802 5.54297 11.6366 5.9532 12.0468C6.36344 12.457 6.91984 12.6875 7.5 12.6875C8.08016 12.6875 8.63656 12.457 9.0468 12.0468C9.45703 11.6366 9.6875 11.0802 9.6875 10.5C9.6875 9.91984 9.45703 9.36344 9.0468 8.9532C8.63656 8.54297 8.08016 8.3125 7.5 8.3125ZM6.5625 10.5C6.5625 10.2514 6.66127 10.0129 6.83709 9.83709C7.0129 9.66127 7.25136 9.5625 7.5 9.5625C7.74864 9.5625 7.9871 9.66127 8.16291 9.83709C8.33873 10.0129 8.4375 10.2514 8.4375 10.5C8.4375 10.7486 8.33873 10.9871 8.16291 11.1629C7.9871 11.3387 7.74864 11.4375 7.5 11.4375C7.25136 11.4375 7.0129 11.3387 6.83709 11.1629C6.66127 10.9871 6.5625 10.7486 6.5625 10.5Z" fill="white"/>
<path d="M10.9537 3.69773L8.96688 0.912109L1.66125 6.74836L1.25625 6.74398V6.75023H0.9375V14.2502H14.0625V6.75023H13.4613L12.265 3.25086L10.9537 3.69773ZM12.1406 6.75023H5.87313L10.5412 5.15898L11.4925 4.85461L12.1406 6.75023ZM9.71875 4.11898L4.9 5.76148L8.71625 2.71273L9.71875 4.11898ZM2.1875 11.8559V9.14336C2.45118 9.04992 2.69069 8.89881 2.88856 8.70105C3.08643 8.50329 3.23767 8.26387 3.33125 8.00023H11.6687C11.7623 8.26396 11.9135 8.50349 12.1114 8.70136C12.3092 8.89922 12.5488 9.05044 12.8125 9.14398V11.8565C12.5488 11.95 12.3092 12.1012 12.1114 12.2991C11.9135 12.497 11.7623 12.7365 11.6687 13.0002H3.3325C3.23886 12.7363 3.08748 12.4966 2.88939 12.2986C2.6913 12.1006 2.4515 11.9494 2.1875 11.8559Z" fill="white"/>
</g>
<defs>
<clipPath id="clip0_460_709">
<rect width="15" height="15" fill="white" transform="translate(0 0.5)"/>
</clipPath>
</defs>
</svg>
