<svg width="21" height="16" viewBox="0 0 21 16" fill="none" xmlns="http://www.w3.org/2000/svg">
<path d="M16.444 12.0745H19.3382C19.0951 8.86732 17.7143 6.87526 15.9432 5.69697L16.7496 3.93689C16.774 3.88104 16.7841 3.82001 16.7791 3.75928C16.7741 3.69855 16.7541 3.64001 16.7208 3.58892C16.6876 3.53783 16.6423 3.49578 16.5888 3.46654C16.5353 3.4373 16.4754 3.42178 16.4145 3.42139H11.3663C11.3053 3.42178 11.2454 3.4373 11.192 3.46654C11.1385 3.49578 11.0931 3.53783 11.0599 3.58892C11.0267 3.64001 11.0067 3.69855 11.0017 3.75928C10.9967 3.82001 11.0068 3.88104 11.0312 3.93689L11.473 4.89425H15.1994L14.868 5.63069H14.1868C14.3948 6.1901 14.5478 6.76849 14.6434 7.35763C14.7053 7.72307 14.7447 8.09199 14.7612 8.46228L14.1794 8.871C14.181 8.39472 14.1416 7.9192 14.0616 7.44968C13.9599 6.82481 13.7843 6.21421 13.5387 5.63069H13.1705C12.8307 6.06005 12.5254 6.51561 12.2573 6.99309C12.0412 7.40268 11.8578 7.82868 11.7087 8.26712L11.2042 7.93205C11.3515 7.50828 11.5325 7.09701 11.7455 6.7022C11.9608 6.33197 12.1968 5.97423 12.4525 5.63069H11.8081L11.8376 5.69329C9.88602 6.99309 8.40211 9.27604 8.40211 13.0871C8.39713 13.1672 8.40808 13.2475 8.43432 13.3234C8.46056 13.3992 8.50157 13.4691 8.55498 13.529C8.60839 13.5889 8.67314 13.6377 8.74549 13.6724C8.81785 13.7072 8.89637 13.7272 8.97653 13.7315H11.9223C11.7958 13.5998 11.7084 13.4356 11.67 13.2571C11.6316 13.0786 11.6437 12.893 11.7049 12.7209C11.766 12.5489 11.8739 12.3973 12.0163 12.2832C12.1588 12.169 12.3302 12.0967 12.5114 12.0745C12.4232 11.9249 12.3762 11.7547 12.3752 11.5811C12.3752 11.3174 12.4799 11.0645 12.6664 10.8781C12.8528 10.6916 13.1057 10.5869 13.3694 10.5869H15.5787C15.8423 10.5869 16.0952 10.6916 16.2817 10.8781C16.4681 11.0645 16.5728 11.3174 16.5728 11.5811C16.5747 11.7541 16.5302 11.9245 16.444 12.0745Z" fill="white"/>
<path d="M15.2324 12.9932C15.2324 12.8956 15.1936 12.8019 15.1245 12.7328C15.0555 12.6638 14.9618 12.625 14.8641 12.625H12.6548C12.5572 12.625 12.4635 12.6638 12.3945 12.7328C12.3254 12.8019 12.2866 12.8956 12.2866 12.9932C12.2866 13.0909 12.3254 13.1845 12.3945 13.2536C12.4635 13.3226 12.5572 13.3614 12.6548 13.3614H14.8641C14.9618 13.3614 15.0555 13.3226 15.1245 13.2536C15.1936 13.1845 15.2324 13.0909 15.2324 12.9932Z" fill="#FFBF43"/>
<path d="M15.5786 11.1528H13.3693C13.2717 11.1528 13.178 11.1916 13.1089 11.2607C13.0399 11.3297 13.0011 11.4234 13.0011 11.521C13.0011 11.6187 13.0399 11.7124 13.1089 11.7814C13.178 11.8505 13.2717 11.8893 13.3693 11.8893H15.5786C15.6763 11.8893 15.7699 11.8505 15.839 11.7814C15.908 11.7124 15.9468 11.6187 15.9468 11.521C15.9468 11.4234 15.908 11.3297 15.839 11.2607C15.7699 11.1916 15.6763 11.1528 15.5786 11.1528Z" fill="#FFBF43"/>
<path d="M15.3798 14.0986H13.1705C13.0728 14.0986 12.9791 14.1374 12.9101 14.2065C12.841 14.2755 12.8022 14.3692 12.8022 14.4668C12.8022 14.5645 12.841 14.6582 12.9101 14.7272C12.9791 14.7963 13.0728 14.8351 13.1705 14.8351H15.3798C15.4774 14.8351 15.5711 14.7963 15.6401 14.7272C15.7092 14.6582 15.748 14.5645 15.748 14.4668C15.748 14.3692 15.7092 14.2755 15.6401 14.2065C15.5711 14.1374 15.4774 14.0986 15.3798 14.0986Z" fill="#FFBF43"/>
<path d="M19.3198 14.0986H16.7423C16.6446 14.0986 16.551 14.1374 16.4819 14.2065C16.4129 14.2755 16.3741 14.3692 16.3741 14.4668C16.3741 14.5645 16.4129 14.6582 16.4819 14.7272C16.551 14.7963 16.6446 14.8351 16.7423 14.8351H19.3198C19.4175 14.8351 19.5111 14.7963 19.5802 14.7272C19.6492 14.6582 19.688 14.5645 19.688 14.4668C19.688 14.3692 19.6492 14.2755 19.5802 14.2065C19.5111 14.1374 19.4175 14.0986 19.3198 14.0986Z" fill="#FFBF43"/>
<path d="M19.688 12.625H17.1105C17.0129 12.625 16.9192 12.6638 16.8502 12.7328C16.7811 12.8019 16.7423 12.8956 16.7423 12.9932C16.7423 13.0909 16.7811 13.1845 16.8502 13.2536C16.9192 13.3226 17.0129 13.3614 17.1105 13.3614H19.688C19.7857 13.3614 19.8794 13.3226 19.9484 13.2536C20.0175 13.1845 20.0563 13.0909 20.0563 12.9932C20.0563 12.8956 20.0175 12.8019 19.9484 12.7328C19.8794 12.6638 19.7857 12.625 19.688 12.625Z" fill="#FFBF43"/>
<path d="M3.47727 11.9034V6.27841H4.43182V11.9034H3.47727ZM1.14205 9.56818V8.61364H6.76705V9.56818H1.14205Z" fill="white"/>
</svg>
