<svg width="20" height="14" viewBox="0 0 20 14" fill="none" xmlns="http://www.w3.org/2000/svg">
<path d="M15.444 9.57449H18.3382C18.0951 6.36732 16.7143 4.37526 14.9432 3.19697L15.7496 1.43689C15.774 1.38104 15.7841 1.32001 15.7791 1.25928C15.7741 1.19855 15.7541 1.14001 15.7208 1.08892C15.6876 1.03783 15.6423 0.995777 15.5888 0.966537C15.5353 0.937297 15.4754 0.921783 15.4145 0.921387H10.3663C10.3053 0.921783 10.2454 0.937297 10.192 0.966537C10.1385 0.995777 10.0931 1.03783 10.0599 1.08892C10.0267 1.14001 10.0067 1.19855 10.0017 1.25928C9.99667 1.32001 10.0068 1.38104 10.0312 1.43689L10.473 2.39425H14.1994L13.868 3.13069H13.1868C13.3948 3.6901 13.5478 4.26849 13.6434 4.85763C13.7053 5.22307 13.7447 5.59199 13.7612 5.96228L13.1794 6.371C13.181 5.89472 13.1416 5.4192 13.0616 4.94968C12.9599 4.32481 12.7843 3.71421 12.5387 3.13069H12.1705C11.8307 3.56005 11.5254 4.01561 11.2573 4.49309C11.0412 4.90268 10.8578 5.32868 10.7087 5.76712L10.2042 5.43205C10.3515 5.00828 10.5325 4.59701 10.7455 4.2022C10.9608 3.83197 11.1968 3.47423 11.4525 3.13069H10.8081L10.8376 3.19329C8.88602 4.49309 7.40211 6.77604 7.40211 10.5871C7.39713 10.6672 7.40808 10.7475 7.43432 10.8234C7.46056 10.8992 7.50157 10.9691 7.55498 11.029C7.60839 11.0889 7.67314 11.1377 7.74549 11.1724C7.81785 11.2072 7.89637 11.2272 7.97653 11.2315H10.9223C10.7958 11.0998 10.7084 10.9356 10.67 10.7571C10.6316 10.5786 10.6437 10.393 10.7049 10.2209C10.766 10.0489 10.8739 9.89734 11.0163 9.78316C11.1588 9.66899 11.3302 9.59673 11.5114 9.57449C11.4232 9.42493 11.3762 9.25469 11.3752 9.08108C11.3752 8.8174 11.4799 8.56453 11.6664 8.37808C11.8528 8.19164 12.1057 8.08689 12.3694 8.08689H14.5787C14.8423 8.08689 15.0952 8.19164 15.2817 8.37808C15.4681 8.56453 15.5728 8.8174 15.5728 9.08108C15.5747 9.25411 15.5302 9.42449 15.444 9.57449Z" fill="white"/>
<path d="M14.2324 10.4932C14.2324 10.3956 14.1936 10.3019 14.1245 10.2328C14.0555 10.1638 13.9618 10.125 13.8641 10.125H11.6548C11.5572 10.125 11.4635 10.1638 11.3945 10.2328C11.3254 10.3019 11.2866 10.3956 11.2866 10.4932C11.2866 10.5909 11.3254 10.6845 11.3945 10.7536C11.4635 10.8226 11.5572 10.8614 11.6548 10.8614H13.8641C13.9618 10.8614 14.0555 10.8226 14.1245 10.7536C14.1936 10.6845 14.2324 10.5909 14.2324 10.4932Z" fill="#FFBF43"/>
<path d="M14.5786 8.65283H12.3693C12.2717 8.65283 12.178 8.69163 12.1089 8.76068C12.0399 8.82973 12.0011 8.92339 12.0011 9.02105C12.0011 9.11871 12.0399 9.21236 12.1089 9.28142C12.178 9.35047 12.2717 9.38927 12.3693 9.38927H14.5786C14.6763 9.38927 14.7699 9.35047 14.839 9.28142C14.908 9.21236 14.9468 9.11871 14.9468 9.02105C14.9468 8.92339 14.908 8.82973 14.839 8.76068C14.7699 8.69163 14.6763 8.65283 14.5786 8.65283Z" fill="#FFBF43"/>
<path d="M14.3798 11.5986H12.1705C12.0728 11.5986 11.9791 11.6374 11.9101 11.7065C11.841 11.7755 11.8022 11.8692 11.8022 11.9668C11.8022 12.0645 11.841 12.1582 11.9101 12.2272C11.9791 12.2963 12.0728 12.3351 12.1705 12.3351H14.3798C14.4774 12.3351 14.5711 12.2963 14.6401 12.2272C14.7092 12.1582 14.748 12.0645 14.748 11.9668C14.748 11.8692 14.7092 11.7755 14.6401 11.7065C14.5711 11.6374 14.4774 11.5986 14.3798 11.5986Z" fill="#FFBF43"/>
<path d="M18.3198 11.5986H15.7423C15.6446 11.5986 15.551 11.6374 15.4819 11.7065C15.4129 11.7755 15.3741 11.8692 15.3741 11.9668C15.3741 12.0645 15.4129 12.1582 15.4819 12.2272C15.551 12.2963 15.6446 12.3351 15.7423 12.3351H18.3198C18.4175 12.3351 18.5111 12.2963 18.5802 12.2272C18.6492 12.1582 18.688 12.0645 18.688 11.9668C18.688 11.8692 18.6492 11.7755 18.5802 11.7065C18.5111 11.6374 18.4175 11.5986 18.3198 11.5986Z" fill="#FFBF43"/>
<path d="M18.688 10.125H16.1105C16.0129 10.125 15.9192 10.1638 15.8502 10.2328C15.7811 10.3019 15.7423 10.3956 15.7423 10.4932C15.7423 10.5909 15.7811 10.6845 15.8502 10.7536C15.9192 10.8226 16.0129 10.8614 16.1105 10.8614H18.688C18.7857 10.8614 18.8794 10.8226 18.9484 10.7536C19.0175 10.6845 19.0563 10.5909 19.0563 10.4932C19.0563 10.3956 19.0175 10.3019 18.9484 10.2328C18.8794 10.1638 18.7857 10.125 18.688 10.125Z" fill="#FFBF43"/>
<line y1="6.47705" x2="6.27907" y2="6.47705" stroke="white"/>
</svg>
