<svg width="23" height="23" viewBox="0 0 23 23" fill="none" xmlns="http://www.w3.org/2000/svg">
<path d="M10.051 0.513759C10.4608 0.181392 10.9724 0 11.5 0C12.0276 0 12.5392 0.181392 12.949 0.513759L21.7212 7.61976C22.1201 7.94273 22.4419 8.35062 22.6631 8.81371C22.8843 9.27679 22.9994 9.78339 23 10.2966V20.7003C23 21.3102 22.7577 21.8952 22.3263 22.3264C21.895 22.7577 21.31 23 20.7 23H17.25C16.64 23 16.055 22.7577 15.6237 22.3264C15.1923 21.8952 14.95 21.3102 14.95 20.7003V14.9511C14.95 14.6462 14.8288 14.3537 14.6132 14.1381C14.3975 13.9224 14.105 13.8013 13.8 13.8013H9.2C8.895 13.8013 8.60249 13.9224 8.38683 14.1381C8.17116 14.3537 8.05 14.6462 8.05 14.9511V20.7003C8.05 21.3102 7.80768 21.8952 7.37635 22.3264C6.94501 22.7577 6.36 23 5.75 23H2.3C1.69 23 1.10499 22.7577 0.673654 22.3264C0.242321 21.8952 6.75256e-08 21.3102 6.75256e-08 20.7003V10.2989C-0.00010163 9.78491 0.114669 9.27741 0.335922 8.81348C0.557174 8.34955 0.879317 7.94092 1.2788 7.61746L10.051 0.513759Z" fill="white"/>
</svg>
