<svg width="22" height="21" viewBox="0 0 22 21" fill="none" xmlns="http://www.w3.org/2000/svg">
<path d="M9.22778 0.585228C9.72371 0.207283 10.3514 0 11 0C11.6486 0 12.2763 0.207283 12.7722 0.585228L21.0222 6.87588C21.6419 7.34889 22 8.04405 22 8.77678V19.0659C22 19.5789 21.7747 20.0708 21.3735 20.4335C20.9724 20.7962 20.4284 21 19.8611 21H15.5833C15.0161 21 14.472 20.7962 14.0709 20.4335C13.6698 20.0708 13.4444 19.5789 13.4444 19.0659V13.5323C13.4444 13.4591 13.4123 13.3888 13.3549 13.337C13.2976 13.2852 13.2199 13.256 13.1389 13.256H8.86111C8.78007 13.256 8.70235 13.2852 8.64505 13.337C8.58775 13.3888 8.55556 13.4591 8.55556 13.5323V19.0659C8.55556 19.5789 8.33021 20.0708 7.92909 20.4335C7.52797 20.7962 6.98394 21 6.41667 21H2.13889C1.85801 21 1.57987 20.95 1.32037 20.8528C1.06087 20.7556 0.82508 20.6131 0.626466 20.4335C0.427852 20.2539 0.270303 20.0407 0.162813 19.8061C0.0553241 19.5714 0 19.3199 0 19.0659V8.77678C0 8.04405 0.358111 7.34889 0.977778 6.87588L9.22778 0.585228ZM11.5903 1.85286C11.4251 1.72707 11.216 1.6581 11 1.6581C10.784 1.6581 10.5749 1.72707 10.4097 1.85286L2.15967 8.14241C2.05757 8.22012 1.97547 8.31705 1.91911 8.42643C1.86274 8.53581 1.83347 8.655 1.83333 8.77567V19.0648C1.83333 19.2174 1.97022 19.3411 2.13889 19.3411H6.41667C6.4977 19.3411 6.57542 19.312 6.63273 19.2602C6.69003 19.2084 6.72222 19.1381 6.72222 19.0648V13.5312C6.72222 12.4625 7.68044 11.5972 8.86111 11.5972H13.1389C14.3196 11.5972 15.2778 12.4625 15.2778 13.5312V19.0648C15.2778 19.2174 15.4147 19.3411 15.5833 19.3411H19.8611C19.9421 19.3411 20.0199 19.312 20.0772 19.2602C20.1345 19.2084 20.1667 19.1381 20.1667 19.0648V8.77567C20.1665 8.655 20.1373 8.53581 20.0809 8.42643C20.0245 8.31705 19.9424 8.22012 19.8403 8.14241L11.5903 1.85286Z" fill="black"/>
</svg>
