<svg width="22" height="21" viewBox="0 0 22 21" fill="none" xmlns="http://www.w3.org/2000/svg">
<path d="M12.7722 0.58529C12.2763 0.207305 11.6486 0 11 0C10.3514 0 9.72371 0.207305 9.22778 0.58529L0.977778 6.87992C0.671561 7.1133 0.425405 7.40436 0.256517 7.73273C0.0876284 8.0611 8.27796e-05 8.41886 0 8.78102V19.0657C0 20.1335 0.958222 21 2.13889 21H5.80556C6.37282 21 6.91686 20.7962 7.31798 20.4335C7.7191 20.0707 7.94444 19.5787 7.94444 19.0657V14.6413C7.94444 13.8897 8.60689 13.2795 9.43189 13.2597H12.5681C12.9663 13.2692 13.3446 13.4189 13.6224 13.677C13.9003 13.9351 14.0557 14.2811 14.0556 14.6413V19.0657C14.0556 20.1335 15.0138 21 16.1944 21H19.8611C20.4284 21 20.9724 20.7962 21.3735 20.4335C21.7747 20.0707 22 19.5787 22 19.0657V8.77991C21.9999 8.41776 21.9124 8.05999 21.7435 7.73162C21.5746 7.40325 21.3284 7.1122 21.0222 6.87881L12.7722 0.58529Z" fill="black"/>
</svg>
