<svg width="26" height="26" viewBox="0 0 26 26" fill="none" xmlns="http://www.w3.org/2000/svg">
<path d="M20.5833 2.16667H19.5V0H17.3333V2.16667H8.66667V0H6.5V2.16667H5.41667C4.225 2.16667 3.25 3.14167 3.25 4.33333V19.5C3.25 20.0746 3.47827 20.6257 3.8846 21.0321C4.29093 21.4384 4.84203 21.6667 5.41667 21.6667H20.5833C21.7858 21.6667 22.75 20.7025 22.75 19.5V4.33333C22.75 3.7587 22.5217 3.2076 22.1154 2.80127C21.7091 2.39494 21.158 2.16667 20.5833 2.16667ZM20.5833 19.5H5.41667V8.66667H20.5833V19.5ZM5.41667 6.5V4.33333H20.5833V6.5H5.41667ZM11.44 17.8317L17.875 11.4075L16.7158 10.2592L11.44 15.535L9.15417 13.2492L8.00583 14.3975L11.44 17.8317Z" fill="white"/>
</svg>
