<svg width="24" height="23" viewBox="0 0 24 23" fill="none" xmlns="http://www.w3.org/2000/svg">
<path d="M1 9.49305H23M1 9.49305V20.9123C1 21.2007 1.12199 21.4773 1.33914 21.6813C1.55629 21.8853 1.8508 21.9998 2.15789 21.9998H21.8421C22.1492 21.9998 22.4437 21.8853 22.6609 21.6813C22.878 21.4773 23 21.2007 23 20.9123V9.49305M1 9.49305V4.05532C1 3.76688 1.12199 3.49026 1.33914 3.28631C1.55629 3.08235 1.8508 2.96777 2.15789 2.96777H21.8421C22.1492 2.96777 22.4437 3.08235 22.6609 3.28631C22.878 3.49026 23 3.76688 23 4.05532V9.49305" stroke="black" stroke-width="2" stroke-linejoin="round"/>
<path d="M7.86842 1V5.35018M17.1316 1V5.35018M14.8158 17.3132H18.2895M6.71053 17.3132H10.1842M14.8158 12.963H18.2895M6.71053 12.963H10.1842" stroke="black" stroke-width="2" stroke-linecap="round" stroke-linejoin="round"/>
</svg>
