<svg width="20" height="21" viewBox="0 0 20 21" fill="none" xmlns="http://www.w3.org/2000/svg">
<path d="M6.27222 18.5599C6.51226 19.265 7.00463 19.8834 7.6762 20.323C8.34777 20.7626 9.16272 21 10 21C10.8373 21 11.6522 20.7626 12.3238 20.323C12.9954 19.8834 13.4877 19.265 13.7278 18.5599H6.27222ZM0 17.583H20V14.6525L17.7778 11.722V6.83784C17.7778 5.93988 17.5766 5.05072 17.1857 4.22111C16.7949 3.39151 16.222 2.63771 15.4997 2.00276C14.7775 1.3678 13.9201 0.864133 12.9764 0.5205C12.0328 0.176866 11.0214 0 10 0C8.97861 0 7.96722 0.176866 7.02357 0.5205C6.07993 0.864133 5.22251 1.3678 4.50028 2.00276C3.77805 2.63771 3.20514 3.39151 2.81427 4.22111C2.4234 5.05072 2.22222 5.93988 2.22222 6.83784V11.722L0 14.6525V17.583Z" fill="black"/>
</svg>
