<svg width="20" height="21" viewBox="0 0 20 21" fill="none" xmlns="http://www.w3.org/2000/svg">
<path d="M2 7.1497C2 5.25348 2.84285 3.43493 4.34315 2.0941C5.84344 0.75327 7.87827 0 10 0C12.1217 0 14.1566 0.75327 15.6569 2.0941C17.1571 3.43493 18 5.25348 18 7.1497V11.3475L20 14.0286V17.8743H14.389C14.1615 18.7624 13.6036 19.5552 12.8064 20.123C12.0091 20.6908 11.0199 21 10.0005 21C8.98109 21 7.99185 20.6908 7.19465 20.123C6.39744 19.5552 5.83946 18.7624 5.612 17.8743H0V14.0286L2 11.3475V7.1497ZM7.708 17.8743C7.90238 18.2731 8.2228 18.6125 8.62995 18.8509C9.03709 19.0893 9.51325 19.2163 10 19.2163C10.4867 19.2163 10.9629 19.0893 11.3701 18.8509C11.7772 18.6125 12.0976 18.2731 12.292 17.8743H7.708ZM10 1.78743C8.4087 1.78743 6.88258 2.35238 5.75736 3.358C4.63214 4.36362 4 5.72754 4 7.1497V11.8891L2 14.5702V16.0868H18V14.5702L16 11.8891V7.1497C16 5.72754 15.3679 4.36362 14.2426 3.358C13.1174 2.35238 11.5913 1.78743 10 1.78743Z" fill="black"/>
</svg>
