<svg width="20" height="22" viewBox="0 0 20 22" fill="none" xmlns="http://www.w3.org/2000/svg">
<path fill-rule="evenodd" clip-rule="evenodd" d="M10 12.1C12.6622 12.1 15.0833 12.8634 16.8644 13.9392C17.7533 14.476 18.5133 15.1096 19.0622 15.7982C19.6022 16.4747 20 17.2843 20 18.15C20 19.0795 19.5433 19.8121 18.8856 20.3346C18.2633 20.8296 17.4422 21.1574 16.57 21.3862C14.8167 21.8449 12.4767 22 10 22C7.52333 22 5.18333 21.846 3.43 21.3862C2.55778 21.1574 1.73667 20.8296 1.11444 20.3346C0.455555 19.811 0 19.0795 0 18.15C0 17.2843 0.397778 16.4747 0.937778 15.7971C1.48667 15.1096 2.24556 14.4771 3.13556 13.9381C4.91667 12.8645 7.33889 12.1 10 12.1ZM10 14.3C7.75222 14.3 5.73 14.949 4.29333 15.8169C3.57444 16.2503 3.03222 16.7211 2.68222 17.1611C2.32222 17.6121 2.22222 17.9531 2.22222 18.15C2.22222 18.2842 2.26333 18.4261 2.50556 18.6186C2.78222 18.8386 3.26333 19.0663 3.99889 19.2588C5.46333 19.6438 7.56778 19.8 10 19.8C12.4333 19.8 14.5367 19.6427 16 19.2588C16.7367 19.0663 17.2178 18.8386 17.4944 18.6186C17.7367 18.4261 17.7778 18.2842 17.7778 18.15C17.7778 17.952 17.6778 17.6121 17.3189 17.1611C16.9678 16.7211 16.4256 16.2503 15.7067 15.8169C14.27 14.9479 12.2478 14.3 10 14.3ZM10 0C11.4734 0 12.8865 0.579463 13.9284 1.61091C14.9702 2.64236 15.5556 4.04131 15.5556 5.5C15.5556 6.95869 14.9702 8.35764 13.9284 9.38909C12.8865 10.4205 11.4734 11 10 11C8.52658 11 7.1135 10.4205 6.07163 9.38909C5.02976 8.35764 4.44444 6.95869 4.44444 5.5C4.44444 4.04131 5.02976 2.64236 6.07163 1.61091C7.1135 0.579463 8.52658 0 10 0ZM10 2.2C9.56226 2.2 9.12881 2.28536 8.72439 2.4512C8.31997 2.61704 7.95251 2.86011 7.64298 3.16655C7.33345 3.47298 7.08792 3.83677 6.9204 4.23714C6.75289 4.63752 6.66667 5.06664 6.66667 5.5C6.66667 5.93336 6.75289 6.36248 6.9204 6.76286C7.08792 7.16323 7.33345 7.52702 7.64298 7.83345C7.95251 8.13989 8.31997 8.38296 8.72439 8.5488C9.12881 8.71464 9.56226 8.8 10 8.8C10.8841 8.8 11.7319 8.45232 12.357 7.83345C12.9821 7.21458 13.3333 6.37521 13.3333 5.5C13.3333 4.62479 12.9821 3.78542 12.357 3.16655C11.7319 2.54768 10.8841 2.2 10 2.2Z" fill="black"/>
</svg>
