<svg width="18" height="22" viewBox="0 0 18 22" fill="none" xmlns="http://www.w3.org/2000/svg">
<path fill-rule="evenodd" clip-rule="evenodd" d="M9 1.75C7.20507 1.75 5.75 3.20507 5.75 5C5.75 6.79493 7.20507 8.25 9 8.25C10.7949 8.25 12.25 6.79493 12.25 5C12.25 3.20507 10.7949 1.75 9 1.75ZM4.25 5C4.25 2.37665 6.37665 0.25 9 0.25C11.6234 0.25 13.75 2.37665 13.75 5C13.75 7.62335 11.6234 9.75 9 9.75C6.37665 9.75 4.25 7.62335 4.25 5Z" fill="white"/>
<path fill-rule="evenodd" clip-rule="evenodd" d="M3.71096 13.9718C2.37141 14.7253 1.75001 15.6488 1.75001 16.5C1.75001 17.8076 1.79032 18.5439 2.47361 19.1003C2.84415 19.4021 3.46356 19.6966 4.52382 19.9112C5.58076 20.1252 7.02579 20.25 9.00001 20.25C10.9742 20.25 12.4193 20.1252 13.4762 19.9112C14.5365 19.6966 15.1559 19.4021 15.5264 19.1003C16.2097 18.5439 16.25 17.8076 16.25 16.5C16.25 15.6488 15.6286 14.7253 14.2891 13.9718C12.9731 13.2315 11.1046 12.75 9.00001 12.75C6.89545 12.75 5.02697 13.2315 3.71096 13.9718ZM2.97556 12.6644C4.55505 11.776 6.68657 11.25 9.00001 11.25C11.3134 11.25 13.445 11.776 15.0245 12.6644C16.5804 13.5397 17.75 14.8662 17.75 16.5C17.75 16.5337 17.75 16.5677 17.7501 16.6019C17.7512 17.7637 17.7526 19.2218 16.4736 20.2634C15.8441 20.776 14.9636 21.1406 13.7738 21.3814C12.5808 21.6229 11.0258 21.75 9.00001 21.75C6.97423 21.75 5.41926 21.6229 4.22621 21.3814C3.03647 21.1406 2.15588 20.776 1.52641 20.2634C0.247399 19.2218 0.248816 17.7637 0.249946 16.6019C0.249979 16.5677 0.250012 16.5337 0.250012 16.5C0.250012 14.8662 1.41961 13.5397 2.97556 12.6644Z" fill="white"/>
</svg>
