<svg width="27" height="27" viewBox="0 0 27 27" fill="none" xmlns="http://www.w3.org/2000/svg">
<path fill-rule="evenodd" clip-rule="evenodd" d="M10.747 7.1065C10.508 7.07435 10.1772 7.07276 9.63541 7.07276C8.83353 7.07276 8.30769 7.07436 7.91847 7.12678C7.55094 7.17628 7.41947 7.25835 7.33968 7.33832L7.33847 7.33953C7.2585 7.41931 7.17643 7.55079 7.12693 7.91832C7.07451 8.30754 7.07291 8.83337 7.07291 9.63526C7.07291 10.1771 7.07451 10.5078 7.10666 10.7468C7.12155 10.8575 7.13969 10.9178 7.15294 10.95C7.16371 10.9762 7.17126 10.9842 7.17676 10.9897C7.18227 10.9952 7.19031 11.0028 7.21649 11.0136C7.24866 11.0268 7.30902 11.045 7.41969 11.0598C7.65867 11.092 7.98941 11.0936 8.53125 11.0936H9.63541C10.1772 11.0936 10.508 11.092 10.747 11.0598C10.8576 11.045 10.918 11.0268 10.9502 11.0136C10.9763 11.0028 10.9844 10.9952 10.9899 10.9897C10.9954 10.9842 11.0029 10.9762 11.0137 10.95C11.027 10.9178 11.0451 10.8575 11.06 10.7468C11.0922 10.5078 11.0937 10.1771 11.0937 9.63526V8.53109C11.0937 7.98926 11.0922 7.65852 11.06 7.41954C11.0451 7.30887 11.027 7.24851 11.0137 7.21634C11.0029 7.19016 10.9954 7.18212 10.9899 7.17661C10.9844 7.1711 10.9763 7.16356 10.9502 7.15278C10.918 7.13954 10.8576 7.12139 10.747 7.1065ZM10.947 5.6199C11.3309 5.67155 11.7263 5.79172 12.0506 6.11595C12.3748 6.44018 12.495 6.8356 12.5466 7.21955C12.5938 7.57063 12.5938 8.00406 12.5937 8.48508C12.5937 8.50037 12.5937 8.51571 12.5937 8.53109V9.63526C12.5937 9.65065 12.5937 9.66598 12.5937 9.68127C12.5938 10.1623 12.5938 10.5957 12.5466 10.9468C12.495 11.3308 12.3748 11.7262 12.0506 12.0504C11.7263 12.3746 11.3309 12.4948 10.947 12.5465C10.5959 12.5937 10.1624 12.5936 9.68143 12.5936C9.66614 12.5936 9.6508 12.5936 9.63541 12.5936H8.53125C8.51586 12.5936 8.50052 12.5936 8.48523 12.5936C8.00422 12.5936 7.57078 12.5937 7.2197 12.5465C6.83575 12.4948 6.44033 12.3746 6.1161 12.0504C5.79188 11.7262 5.6717 11.3308 5.62005 10.9468C5.57282 10.5957 5.57286 10.1623 5.57291 9.68128C5.57291 9.66599 5.57291 9.65065 5.57291 9.63526C5.57291 9.6184 5.57291 9.6016 5.57291 9.58485C5.57288 8.84728 5.57285 8.21934 5.64035 7.71811C5.71231 7.18382 5.87315 6.6826 6.27902 6.27766L6.80872 6.80857L6.27781 6.27887C6.68276 5.873 7.18397 5.71216 7.71826 5.6402C8.21949 5.57269 8.84743 5.57272 9.585 5.57276C9.60175 5.57276 9.61855 5.57276 9.63541 5.57276C9.6508 5.57276 9.66614 5.57276 9.68143 5.57276C10.1624 5.57271 10.5959 5.57267 10.947 5.6199ZM16.0498 7.15278C16.0236 7.16356 16.0156 7.1711 16.0101 7.17661C16.0046 7.18212 15.997 7.19016 15.9863 7.21634C15.973 7.24851 15.9549 7.30887 15.94 7.41954C15.9078 7.65852 15.9062 7.98926 15.9062 8.53109V9.63526C15.9062 10.1771 15.9078 10.5078 15.94 10.7468C15.9549 10.8575 15.973 10.9178 15.9863 10.95C15.997 10.9762 16.0046 10.9842 16.0101 10.9897C16.0156 10.9952 16.0236 11.0028 16.0498 11.0136C16.082 11.0268 16.1424 11.045 16.253 11.0598C16.492 11.092 16.8227 11.0936 17.3646 11.0936H18.4687C19.0106 11.0936 19.3413 11.092 19.5803 11.0598C19.691 11.045 19.7513 11.0268 19.7835 11.0136C19.8097 11.0028 19.8177 10.9952 19.8232 10.9897C19.8287 10.9842 19.8363 10.9762 19.8471 10.95C19.8603 10.9178 19.8784 10.8575 19.8933 10.7468C19.9255 10.5078 19.9271 10.1771 19.9271 9.63526C19.9271 8.83337 19.9255 8.30754 19.8731 7.91832C19.8236 7.55079 19.7415 7.41931 19.6615 7.33953L19.6603 7.33832C19.5805 7.25835 19.4491 7.17628 19.0815 7.12678C18.6923 7.07436 18.1665 7.07276 17.3646 7.07276C16.8227 7.07276 16.492 7.07435 16.253 7.1065C16.1424 7.12139 16.082 7.13954 16.0498 7.15278ZM17.3186 5.57276L17.415 5.57276C18.1526 5.57272 18.7805 5.57269 19.2817 5.6402C19.8159 5.71214 20.3169 5.87291 20.7218 6.27851C21.1271 6.6833 21.2877 7.18419 21.3596 7.71811C21.4271 8.21934 21.4271 8.84727 21.4271 9.58485L21.4271 9.68127C21.4271 10.1623 21.4272 10.5957 21.3799 10.9468C21.3283 11.3308 21.2081 11.7262 20.8839 12.0504C20.5597 12.3746 20.1642 12.4948 19.7803 12.5465C19.4292 12.5937 18.9958 12.5936 18.5148 12.5936H17.3186C16.8375 12.5936 16.4041 12.5937 16.053 12.5465C15.6691 12.4948 15.2737 12.3746 14.9494 12.0504C14.6252 11.7262 14.505 11.3308 14.4534 10.9468C14.4062 10.5957 14.4062 10.1623 14.4062 9.68127C14.4062 9.66598 14.4062 9.65065 14.4062 9.63526V8.53109C14.4062 8.51571 14.4062 8.50037 14.4062 8.48508C14.4062 8.00406 14.4062 7.57063 14.4534 7.21955C14.505 6.8356 14.6252 6.44018 14.9494 6.11595C15.2737 5.79172 15.6691 5.67155 16.053 5.6199C16.4041 5.57267 16.8375 5.57271 17.3186 5.57276ZM7.21649 15.9861C7.19031 15.9969 7.18227 16.0044 7.17676 16.0099C7.17126 16.0155 7.16371 16.0235 7.15294 16.0497C7.13969 16.0818 7.12155 16.1422 7.10666 16.2529C7.07451 16.4919 7.07291 16.8226 7.07291 17.3644C7.07291 18.1663 7.07451 18.6921 7.12693 19.0814C7.17643 19.4489 7.2585 19.5804 7.33847 19.6602L7.33968 19.6614C7.41947 19.7413 7.55094 19.8234 7.91847 19.8729C8.30769 19.9253 8.83353 19.9269 9.63541 19.9269C10.1772 19.9269 10.508 19.9253 10.747 19.8932C10.8576 19.8783 10.918 19.8601 10.9502 19.8469C10.9763 19.8361 10.9844 19.8286 10.9899 19.8231C10.9954 19.8176 11.0029 19.8095 11.0137 19.7834C11.027 19.7512 11.0451 19.6908 11.06 19.5801C11.0922 19.3412 11.0937 19.0104 11.0937 18.4686V17.3644C11.0937 16.8226 11.0922 16.4919 11.06 16.2529C11.0451 16.1422 11.027 16.0818 11.0137 16.0497C11.0029 16.0235 10.9954 16.0155 10.9899 16.0099C10.9844 16.0044 10.9763 15.9969 10.9502 15.9861C10.918 15.9729 10.8576 15.9547 10.747 15.9398C10.508 15.9077 10.1772 15.9061 9.63541 15.9061H8.53125C7.98941 15.9061 7.65867 15.9077 7.41969 15.9398C7.30902 15.9547 7.24866 15.9729 7.21649 15.9861ZM8.48523 14.4061C8.50052 14.4061 8.51586 14.4061 8.53125 14.4061H9.63541C9.6508 14.4061 9.66614 14.4061 9.68143 14.4061C10.1624 14.406 10.5959 14.406 10.947 14.4532C11.3309 14.5049 11.7263 14.6251 12.0506 14.9493C12.3748 15.2735 12.495 15.6689 12.5466 16.0529C12.5938 16.404 12.5938 16.8374 12.5937 17.3184V18.5146C12.5938 18.9956 12.5938 19.4291 12.5466 19.7801C12.495 20.1641 12.3748 20.5595 12.0506 20.8837C11.7263 21.208 11.3309 21.3281 10.947 21.3798C10.5959 21.427 10.1624 21.427 9.68143 21.4269L9.585 21.4269C8.84743 21.427 8.21949 21.427 7.71826 21.3595C7.18423 21.2876 6.68325 21.1268 6.27842 20.7214C5.87299 20.3166 5.71228 19.8156 5.64035 19.2816C5.57285 18.7803 5.57288 18.1524 5.57291 17.4148L5.57291 17.3184C5.57286 16.8374 5.57282 16.404 5.62005 16.0529C5.6717 15.6689 5.79188 15.2735 6.1161 14.9493C6.44033 14.6251 6.83575 14.5049 7.2197 14.4532C7.57078 14.406 8.00422 14.406 8.48523 14.4061ZM16.0498 15.9861C16.0236 15.9969 16.0156 16.0044 16.0101 16.0099C16.0046 16.0155 15.997 16.0235 15.9863 16.0497C15.973 16.0818 15.9549 16.1422 15.94 16.2529C15.9078 16.4919 15.9062 16.8226 15.9062 17.3644V18.4686C15.9062 19.0104 15.9078 19.3412 15.94 19.5801C15.9549 19.6908 15.973 19.7512 15.9863 19.7834C15.997 19.8095 16.0046 19.8176 16.0101 19.8231C16.0156 19.8286 16.0236 19.8361 16.0498 19.8469C16.082 19.8601 16.1424 19.8783 16.253 19.8932C16.492 19.9253 16.8227 19.9269 17.3646 19.9269C18.1665 19.9269 18.6923 19.9253 19.0815 19.8729C19.4491 19.8234 19.5805 19.7413 19.6603 19.6614L19.6615 19.6602C19.7415 19.5804 19.8236 19.4489 19.8731 19.0814C19.9255 18.6921 19.9271 18.1663 19.9271 17.3644C19.9271 16.8226 19.9255 16.4919 19.8933 16.2529C19.8784 16.1422 19.8603 16.0818 19.8471 16.0497C19.8363 16.0235 19.8287 16.0155 19.8232 16.0099C19.8177 16.0044 19.8097 15.9969 19.7835 15.9861C19.7513 15.9729 19.691 15.9547 19.5803 15.9398C19.3413 15.9077 19.0106 15.9061 18.4687 15.9061H17.3646C16.8227 15.9061 16.492 15.9077 16.253 15.9398C16.1424 15.9547 16.082 15.9729 16.0498 15.9861ZM17.3186 14.4061H18.5148C18.9958 14.406 19.4292 14.406 19.7803 14.4532C20.1642 14.5049 20.5597 14.6251 20.8839 14.9493C21.2081 15.2735 21.3283 15.6689 21.3799 16.0529C21.4272 16.404 21.4271 16.8374 21.4271 17.3184L21.4271 17.4148C21.4271 18.1524 21.4271 18.7803 21.3596 19.2816C21.2877 19.8156 21.127 20.3166 20.7216 20.7214C20.3167 21.1268 19.8158 21.2876 19.2817 21.3595C18.7805 21.427 18.1526 21.427 17.415 21.4269L17.3186 21.4269C16.8375 21.427 16.4041 21.427 16.053 21.3798C15.6691 21.3281 15.2737 21.208 14.9494 20.8837C14.6252 20.5595 14.505 20.1641 14.4534 19.7801C14.4062 19.4291 14.4062 18.9956 14.4062 18.5146V17.3184C14.4062 16.8374 14.4062 16.404 14.4534 16.0529C14.505 15.6689 14.6252 15.2735 14.9494 14.9493C15.2737 14.6251 15.6691 14.5049 16.053 14.4532C16.4041 14.406 16.8375 14.406 17.3186 14.4061Z" fill="white"/>
<path fill-rule="evenodd" clip-rule="evenodd" d="M11.2348 1.70825L11.2917 1.70825C11.7059 1.70825 12.0417 2.04404 12.0417 2.45825C12.0417 2.87247 11.7059 3.20825 11.2917 3.20825C9.18856 3.20825 7.68656 3.20985 6.54546 3.36332C5.42593 3.51389 4.76685 3.79816 4.28298 4.28244L4.28253 4.28289C3.79825 4.76676 3.51398 5.42583 3.36341 6.54537C3.20994 7.68647 3.20834 9.18847 3.20834 11.2916C3.20834 11.7058 2.87256 12.0416 2.45834 12.0416C2.04413 12.0416 1.70834 11.7058 1.70834 11.2916L1.70834 11.2347C1.70833 9.20103 1.70832 7.5981 1.8768 6.34543C2.04973 5.05966 2.41245 4.03108 3.2221 3.22201C4.03117 2.41236 5.05975 2.04964 6.34552 1.87671C7.59819 1.70823 9.20112 1.70824 11.2348 1.70825ZM20.4546 3.36332C19.3135 3.20985 17.8115 3.20825 15.7083 3.20825C15.2941 3.20825 14.9583 2.87247 14.9583 2.45825C14.9583 2.04404 15.2941 1.70825 15.7083 1.70825L15.7652 1.70825C17.7989 1.70824 19.4018 1.70823 20.6545 1.87671C21.9402 2.04962 22.9687 2.41229 23.7777 3.22178C24.5875 4.03089 24.9503 5.05954 25.1232 6.34543C25.2917 7.59811 25.2917 9.20105 25.2917 11.2348V11.2916C25.2917 11.7058 24.9559 12.0416 24.5417 12.0416C24.1275 12.0416 23.7917 11.7058 23.7917 11.2916C23.7917 9.18847 23.7901 7.68647 23.6366 6.54537C23.486 5.42583 23.2018 4.76676 22.7175 4.28289L22.717 4.28244C22.2332 3.79816 21.5741 3.51389 20.4546 3.36332ZM2.45834 14.9583C2.87256 14.9583 3.20834 15.294 3.20834 15.7083C3.20834 17.8114 3.20994 19.3134 3.36341 20.4545C3.51398 21.574 3.79825 22.2331 4.28253 22.7169L4.28298 22.7174C4.76685 23.2017 5.42593 23.4859 6.54546 23.6365C7.68656 23.79 9.18856 23.7916 11.2917 23.7916C11.7059 23.7916 12.0417 24.1274 12.0417 24.5416C12.0417 24.9558 11.7059 25.2916 11.2917 25.2916H11.2348C9.20115 25.2916 7.5982 25.2916 6.34552 25.1231C5.05963 24.9502 4.03098 24.5874 3.22187 23.7776C2.41239 22.9686 2.04971 21.9401 1.8768 20.6544C1.70832 19.4017 1.70833 17.7988 1.70834 15.7651L1.70834 15.7083C1.70834 15.294 2.04413 14.9583 2.45834 14.9583ZM24.5417 14.9583C24.9559 14.9583 25.2917 15.294 25.2917 15.7083V15.7651C25.2917 17.7988 25.2917 19.4017 25.1232 20.6544C24.9503 21.9402 24.5876 22.9688 23.7779 23.7778C22.9688 24.5875 21.9403 24.9502 20.6545 25.1231C19.4018 25.2916 17.7989 25.2916 15.7652 25.2916H15.7083C15.2941 25.2916 14.9583 24.9558 14.9583 24.5416C14.9583 24.1274 15.2941 23.7916 15.7083 23.7916C17.8115 23.7916 19.3135 23.79 20.4546 23.6365C21.5741 23.4859 22.2332 23.2017 22.717 22.7174L22.7175 22.7169C23.2018 22.2331 23.486 21.574 23.6366 20.4545C23.7901 19.3134 23.7917 17.8114 23.7917 15.7083C23.7917 15.294 24.1275 14.9583 24.5417 14.9583Z" fill="white"/>
</svg>
