<svg width="70" height="70" viewBox="0 0 70 70" fill="none" xmlns="http://www.w3.org/2000/svg">
<path d="M23.744 9.891C24.1811 9.02189 24.8511 8.29134 25.6793 7.78086C26.5074 7.27037 27.4611 7.00003 28.434 7H41.608C42.5835 7.00003 43.5397 7.27185 44.3693 7.78497C45.199 8.29809 45.8693 9.03222 46.305 9.905L48.3525 14H54.2675C56.5881 14 58.8137 14.9219 60.4547 16.5628C62.0956 18.2038 63.0175 20.4294 63.0175 22.75V35.9135C61.0268 34.2614 58.7225 33.0293 56.2431 32.2912C53.7637 31.5532 51.1606 31.3245 48.5905 31.619C47.7575 28.3087 45.7444 25.4166 42.9295 23.4859C40.1145 21.5552 36.6914 20.7189 33.3032 21.1341C29.9151 21.5493 26.7952 23.1874 24.5297 25.7406C22.2642 28.2939 21.009 31.5866 21 35C21.0001 38.1253 22.0455 41.1608 23.9697 43.6235C25.8939 46.0861 28.5865 47.8346 31.619 48.5905C31.1903 52.3427 31.8794 56.138 33.6 59.5H15.771C13.4504 59.5 11.2248 58.5781 9.58381 56.9372C7.94287 55.2962 7.021 53.0706 7.021 50.75V22.75C7.021 20.4294 7.94287 18.2038 9.58381 16.5628C11.2248 14.9219 13.4504 14 15.771 14H21.686L23.744 9.891ZM35 24.5C39.8755 24.5 43.974 27.825 45.157 32.326C42.13 33.2484 39.3763 34.9012 37.1388 37.1388C34.9012 39.3764 33.2484 42.13 32.326 45.157C29.8613 44.5043 27.7182 42.9774 26.2964 40.8611C24.8745 38.7448 24.2709 36.1836 24.5982 33.6551C24.9255 31.1266 26.1614 28.8034 28.0753 27.1189C29.9891 25.4344 32.4504 24.5036 35 24.5ZM66.5 50.75C66.5 54.9272 64.8406 58.9332 61.8869 61.8869C58.9332 64.8406 54.9272 66.5 50.75 66.5C46.5728 66.5 42.5668 64.8406 39.6131 61.8869C36.6594 58.9332 35 54.9272 35 50.75C35 46.5728 36.6594 42.5668 39.6131 39.6131C42.5668 36.6594 46.5728 35 50.75 35C54.9272 35 58.9332 36.6594 61.8869 39.6131C64.8406 42.5668 66.5 46.5728 66.5 50.75ZM52.5 43.75C52.5 43.2859 52.3156 42.8408 51.9874 42.5126C51.6592 42.1844 51.2141 42 50.75 42C50.2859 42 49.8407 42.1844 49.5126 42.5126C49.1844 42.8408 49 43.2859 49 43.75V49H43.75C43.2859 49 42.8407 49.1844 42.5126 49.5126C42.1844 49.8408 42 50.2859 42 50.75C42 51.2141 42.1844 51.6592 42.5126 51.9874C42.8407 52.3156 43.2859 52.5 43.75 52.5H49V57.75C49 58.2141 49.1844 58.6592 49.5126 58.9874C49.8407 59.3156 50.2859 59.5 50.75 59.5C51.2141 59.5 51.6592 59.3156 51.9874 58.9874C52.3156 58.6592 52.5 58.2141 52.5 57.75V52.5H57.75C58.2141 52.5 58.6592 52.3156 58.9874 51.9874C59.3156 51.6592 59.5 51.2141 59.5 50.75C59.5 50.2859 59.3156 49.8408 58.9874 49.5126C58.6592 49.1844 58.2141 49 57.75 49H52.5V43.75Z" fill="black" fill-opacity="0.5"/>
</svg>
