<svg width="25" height="25" viewBox="0 0 25 25" fill="none" xmlns="http://www.w3.org/2000/svg">
<path d="M12.5 1.5625C10.3368 1.5625 8.22212 2.20397 6.42346 3.4058C4.62479 4.60763 3.22291 6.31583 2.39507 8.3144C1.56724 10.313 1.35064 12.5121 1.77267 14.6338C2.19469 16.7555 3.23639 18.7043 4.76602 20.234C6.29566 21.7636 8.24454 22.8053 10.3662 23.2273C12.4879 23.6494 14.687 23.4328 16.6856 22.6049C18.6842 21.7771 20.3924 20.3752 21.5942 18.5765C22.796 16.7779 23.4375 14.6632 23.4375 12.5C23.4375 9.59919 22.2852 6.8172 20.234 4.76602C18.1828 2.71484 15.4008 1.5625 12.5 1.5625ZM12.5 19.5312C12.2682 19.5312 12.0417 19.4625 11.8489 19.3338C11.6562 19.205 11.506 19.022 11.4173 18.8078C11.3286 18.5937 11.3054 18.3581 11.3506 18.1308C11.3959 17.9034 11.5075 17.6946 11.6714 17.5307C11.8353 17.3668 12.0441 17.2552 12.2714 17.21C12.4987 17.1648 12.7343 17.188 12.9485 17.2767C13.1626 17.3654 13.3456 17.5156 13.4744 17.7083C13.6032 17.901 13.6719 18.1276 13.6719 18.3594C13.6719 18.6702 13.5484 18.9682 13.3286 19.188C13.1089 19.4078 12.8108 19.5312 12.5 19.5312ZM13.3922 13.4734V15.4273H11.6344V11.7188H13.2945C13.7869 11.7188 14.2592 11.5231 14.6074 11.175C14.9556 10.8268 15.1512 10.3545 15.1512 9.86211C15.1512 9.3697 14.9556 8.89745 14.6074 8.54927C14.2592 8.20108 13.7869 8.00547 13.2945 8.00547H12.1227C11.6308 8.00609 11.1592 8.20177 10.8113 8.54961C10.4635 8.89744 10.2678 9.36903 10.2672 9.86094V10.3594H8.50938V9.86094C8.51062 8.90323 8.89178 7.98514 9.5692 7.30816C10.2466 6.63118 11.165 6.25062 12.1227 6.25H13.2945C14.2427 6.25217 15.1521 6.62706 15.8263 7.29376C16.5006 7.96047 16.8856 8.86554 16.8984 9.81366C16.9113 10.7618 16.5508 11.6769 15.8948 12.3616C15.2389 13.0463 14.34 13.4456 13.3922 13.4734Z" fill="#202D37"/>
</svg>
