<svg width="25" height="25" viewBox="0 0 25 25" fill="none" xmlns="http://www.w3.org/2000/svg">
<path d="M12.5 2.0835C6.74998 2.0835 2.08331 6.75016 2.08331 12.5002C2.08331 18.2502 6.74998 22.9168 12.5 22.9168C18.25 22.9168 22.9166 18.2502 22.9166 12.5002C22.9166 6.75016 18.25 2.0835 12.5 2.0835ZM12.5 17.7085C11.9271 17.7085 11.4583 17.2397 11.4583 16.6668V12.5002C11.4583 11.9272 11.9271 11.4585 12.5 11.4585C13.0729 11.4585 13.5416 11.9272 13.5416 12.5002V16.6668C13.5416 17.2397 13.0729 17.7085 12.5 17.7085ZM13.5416 9.37516H11.4583V7.29183H13.5416V9.37516Z" fill="#142847"/>
</svg>
