<svg width="25" height="25" viewBox="0 0 25 25" fill="none" xmlns="http://www.w3.org/2000/svg">
<path d="M4.36458 4.65609C3.61458 4.98942 3.125 5.73942 3.125 6.56234V11.4582C3.125 17.2394 7.125 22.6457 12.5 23.9582C17.875 22.6457 21.875 17.2394 21.875 11.4582V6.56234C21.875 5.73942 21.3854 4.98942 20.6354 4.65609L13.3438 1.4165C12.8021 1.17692 12.1875 1.17692 11.6562 1.4165L4.36458 4.65609ZM12.5 7.2915C13.0729 7.2915 13.5417 7.76025 13.5417 8.33317C13.5417 8.90609 13.0729 9.37484 12.5 9.37484C11.9271 9.37484 11.4583 8.90609 11.4583 8.33317C11.4583 7.76025 11.9271 7.2915 12.5 7.2915ZM12.5 11.4582C13.0729 11.4582 13.5417 11.9269 13.5417 12.4998V16.6665C13.5417 17.2394 13.0729 17.7082 12.5 17.7082C11.9271 17.7082 11.4583 17.2394 11.4583 16.6665V12.4998C11.4583 11.9269 11.9271 11.4582 12.5 11.4582Z" fill="#142847"/>
</svg>
