<svg width="17" height="19" viewBox="0 0 17 19" fill="none" xmlns="http://www.w3.org/2000/svg">
<path d="M2.44062 9.9375H5C5.16042 9.9375 5.31354 9.97775 5.45937 10.0582C5.60521 10.1387 5.71458 10.2589 5.7875 10.4187L6.75 12.3438L9.4625 6.91875C9.62292 6.58333 9.88542 6.41563 10.25 6.41563C10.6146 6.41563 10.8771 6.58333 11.0375 6.91875L12.5469 9.9375H14.5594C14.3406 8.45 13.6625 7.20312 12.525 6.19688C11.3875 5.19062 10.0458 4.6875 8.5 4.6875C6.95417 4.6875 5.6125 5.19062 4.475 6.19688C3.3375 7.20312 2.65937 8.45 2.44062 9.9375ZM8.5 16.9375C10.0458 16.9375 11.3875 16.4344 12.525 15.4281C13.6625 14.4219 14.3406 13.175 14.5594 11.6875H12C11.8396 11.6875 11.6865 11.6475 11.5406 11.5676C11.3948 11.4877 11.2854 11.3672 11.2125 11.2063L10.25 9.28125L7.5375 14.7063C7.37708 15.0417 7.11458 15.2094 6.75 15.2094C6.38542 15.2094 6.12292 15.0417 5.9625 14.7063L4.45312 11.6875H2.44062C2.65937 13.175 3.3375 14.4219 4.475 15.4281C5.6125 16.4344 6.95417 16.9375 8.5 16.9375ZM8.5 18.6875C7.42083 18.6875 6.40379 18.4798 5.44887 18.0645C4.49396 17.6492 3.65892 17.0839 2.94375 16.3687C2.22917 15.6542 1.66421 14.8191 1.24888 13.8636C0.833542 12.9081 0.625583 11.8911 0.625 10.8125H2.375C2.375 12.5042 2.97292 13.9479 4.16875 15.1438C5.36458 16.3396 6.80833 16.9375 8.5 16.9375C10.1917 16.9375 11.6354 16.3396 12.8313 15.1438C14.0271 13.9479 14.625 12.5042 14.625 10.8125H16.375C16.375 11.8917 16.1673 12.909 15.752 13.8645C15.3367 14.82 14.7714 15.6548 14.0563 16.3687C13.3417 17.0833 12.5066 17.6486 11.5511 18.0645C10.5956 18.4804 9.57858 18.6881 8.5 18.6875ZM0.625 10.8125C0.625 9.73333 0.832958 8.716 1.24888 7.7605C1.66479 6.805 2.22975 5.97025 2.94375 5.25625C3.65833 4.54167 4.49337 3.97671 5.44887 3.56137C6.40437 3.14604 7.42142 2.93808 8.5 2.9375C9.40417 2.9375 10.2719 3.08333 11.1031 3.375C11.9344 3.66667 12.7146 4.08958 13.4437 4.64375L14.6687 3.41875L15.8938 4.64375L14.6687 5.86875C15.2229 6.59792 15.6458 7.37812 15.9375 8.20937C16.2292 9.04062 16.375 9.90833 16.375 10.8125H14.625C14.625 9.12083 14.0271 7.67708 12.8313 6.48125C11.6354 5.28542 10.1917 4.6875 8.5 4.6875C6.80833 4.6875 5.36458 5.28542 4.16875 6.48125C2.97292 7.67708 2.375 9.12083 2.375 10.8125H0.625ZM5.875 2.0625V0.3125H11.125V2.0625H5.875ZM8.5 16.9375C6.80833 16.9375 5.36458 16.3396 4.16875 15.1438C2.97292 13.9479 2.375 12.5042 2.375 10.8125C2.375 9.12083 2.97292 7.67708 4.16875 6.48125C5.36458 5.28542 6.80833 4.6875 8.5 4.6875C10.1917 4.6875 11.6354 5.28542 12.8313 6.48125C14.0271 7.67708 14.625 9.12083 14.625 10.8125C14.625 12.5042 14.0271 13.9479 12.8313 15.1438C11.6354 16.3396 10.1917 16.9375 8.5 16.9375Z" fill="#387ADF"/>
</svg>
