<?xml version="1.0" encoding="UTF-8"?>
<svg version="1.1" xmlns="http://www.w3.org/2000/svg" width="361" height="311">
<path d="M0 0 C1.00039307 0.27287842 1.00039307 0.27287842 2.02099609 0.55126953 C20.55744627 5.72004296 37.38263352 15.63324392 52 28 C52.81210937 28.67675781 53.62421875 29.35351562 54.4609375 30.05078125 C79.77874909 51.8943821 95.67438548 84.47419597 98.40625 117.703125 C100.99451469 154.24777472 90.63717833 189.63354691 66.7109375 217.68359375 C64.51421626 220.16339762 62.2715655 222.58877224 60 225 C59.40058594 225.66386719 58.80117188 226.32773438 58.18359375 227.01171875 C35.82662858 250.81729938 1.71551656 264.09547597 -30.55078125 265.203125 C-55.97379916 265.62329622 -79.72278345 260.37901572 -102 248 C-102.90878906 247.50757813 -103.81757812 247.01515625 -104.75390625 246.5078125 C-123.05078258 236.11119256 -138.82746172 220.77995339 -150 203 C-150.38881348 202.38576172 -150.77762695 201.77152344 -151.17822266 201.13867188 C-162.87972863 182.33526302 -170.24526505 160.23323362 -171 138 C-171.0515625 136.85144531 -171.103125 135.70289063 -171.15625 134.51953125 C-171.95597378 101.2976724 -161.08357787 68.03309683 -139 43 C-138.2678125 42.14664063 -137.535625 41.29328125 -136.78125 40.4140625 C-127.41928866 29.70055041 -117.06927512 21.41079763 -105 14 C-104.40590332 13.63487305 -103.81180664 13.26974609 -103.19970703 12.89355469 C-92.47365227 6.44183722 -81.01526524 2.38704351 -69 -1 C-68.31309082 -1.1949707 -67.62618164 -1.38994141 -66.91845703 -1.59082031 C-46.18833573 -7.12096744 -20.48016235 -5.83025908 0 0 Z M-61 74 C-61.41831404 77.71000718 -61.41831404 77.71000718 -61 81 C-62.02480469 80.95359375 -63.04960937 80.9071875 -64.10546875 80.859375 C-65.46611656 80.82183989 -66.82679605 80.78544159 -68.1875 80.75 C-68.86103516 80.71648437 -69.53457031 80.68296875 -70.22851562 80.6484375 C-73.89041975 80.57698571 -75.82150622 80.88465822 -78.92578125 82.890625 C-82.74046393 86.76996332 -82.14802804 90.44356374 -82.14526367 95.60888672 C-82.14862228 96.50008209 -82.1519809 97.39127747 -82.15544128 98.30947876 C-82.16496833 101.26622905 -82.16689532 104.2229228 -82.16796875 107.1796875 C-82.17118028 109.2299095 -82.17454427 111.28013127 -82.17805481 113.33035278 C-82.18405059 117.63283825 -82.18589427 121.93530362 -82.18530273 126.23779297 C-82.18520113 131.75497086 -82.19885009 137.27202002 -82.21607494 142.7891674 C-82.22718601 147.02532546 -82.22922221 151.26145231 -82.22869301 155.49762344 C-82.2298746 157.53181527 -82.23430637 159.56600787 -82.24202538 161.60018539 C-82.25180651 164.44432369 -82.24895453 167.28818155 -82.24291992 170.13232422 C-82.24853943 170.97506897 -82.25415894 171.81781372 -82.25994873 172.68609619 C-82.3057696 178.18409337 -82.3057696 178.18409337 -80 183 C-76.955498 185.029668 -76.39723672 185.24856301 -72.98754883 185.22705078 C-72.18694534 185.22689972 -71.38634186 185.22674866 -70.56147766 185.22659302 C-69.27227669 185.21110916 -69.27227669 185.21110916 -67.95703125 185.1953125 C-66.63163582 185.19106766 -66.63163582 185.19106766 -65.27946472 185.18673706 C-62.45700546 185.17554097 -59.63486338 185.15043751 -56.8125 185.125 C-54.89909312 185.11496946 -52.98568127 185.10584374 -51.07226562 185.09765625 C-46.38138818 185.07560351 -41.69074787 185.04107762 -37 185 C-37 182.69 -37 180.38 -37 178 C-49.21 178 -61.42 178 -74 178 C-74 148.63 -74 119.26 -74 89 C-69.71 89 -65.42 89 -61 89 C-61 92.96 -61 96.92 -61 101 C-44.5 101 -28 101 -11 101 C-11 97.04 -11 93.08 -11 89 C-6.71 89 -2.42 89 2 89 C2 104.18 2 119.36 2 135 C4.64 135 7.28 135 10 135 C10.07612856 128.39810582 10.12863283 121.79632506 10.16479492 115.1940918 C10.17987182 112.94860606 10.20033653 110.70314971 10.22631836 108.45776367 C10.26274918 105.22827901 10.27973755 101.99918406 10.29296875 98.76953125 C10.30845261 97.76727005 10.32393646 96.76500885 10.33988953 95.7323761 C10.37834912 88.85491365 10.37834912 88.85491365 7 83 C3.31912647 80.54608431 0.55644412 80.77197241 -3.6875 80.875 C-4.38939453 80.88402344 -5.09128906 80.89304687 -5.81445312 80.90234375 C-7.54311525 80.92586296 -9.27160145 80.96173287 -11 81 C-10.97164063 80.06800781 -10.94328125 79.13601562 -10.9140625 78.17578125 C-11.01289426 74.52349836 -11.84486134 72.9011482 -14 70 C-19.13181116 67.43409442 -27.25278167 68.68656088 -32.96606445 68.64990234 C-34.85844219 68.63334668 -36.7507575 68.60606165 -38.64282227 68.56787109 C-41.37288814 68.51305528 -44.1014889 68.49122182 -46.83203125 68.4765625 C-47.67490189 68.45389313 -48.51777252 68.43122375 -49.38618469 68.40786743 C-54.92384429 68.42774475 -57.58620728 69.25502936 -61 74 Z M16 147 C7.42 155.58 -1.16 164.16 -10 173 C-13.49353838 171.25323081 -15.13945763 170.08594785 -17.75 167.375 C-18.36359375 166.74335938 -18.9771875 166.11171875 -19.609375 165.4609375 C-20.06828125 164.97882813 -20.5271875 164.49671875 -21 164 C-24.16115776 165.36983503 -24.9927092 165.9890638 -27 169 C-22.05 173.95 -17.1 178.9 -12 184 C-8.76612666 182.38306333 -7.27997412 181.52804407 -4.88378906 179.11083984 C-4.30348938 178.5303891 -3.7231897 177.94993835 -3.12530518 177.35189819 C-2.51161072 176.72788116 -1.89791626 176.10386414 -1.265625 175.4609375 C-0.62759949 174.82008209 0.01042603 174.17922668 0.66778564 173.51895142 C2.69994069 171.47562179 4.72502218 169.42544018 6.75 167.375 C8.1284453 165.9865214 9.50734636 164.5984951 10.88671875 163.2109375 C14.26311894 159.81251303 17.63319288 156.40792746 21 153 C19.63016497 149.83884224 19.0109362 149.0072908 16 147 Z " fill="#5DB58A" transform="translate(219,16)"/>
<path d="M0 0 C11.22 0 22.44 0 34 0 C34 5.94 34 11.88 34 18 C22.78 18 11.56 18 0 18 C0 12.06 0 6.12 0 0 Z " fill="#68B992" transform="translate(166,92)"/>
<path d="M0 0 C0.33 0 0.66 0 1 0 C1.01030746 1.13117249 1.02061493 2.26234497 1.03123474 3.42779541 C1.12893449 14.08109232 1.23166541 24.73433037 1.33933926 35.38753128 C1.39453498 40.86461631 1.44794971 46.34170672 1.49731445 51.81884766 C1.54500731 57.10325529 1.59735203 62.38759814 1.65294075 67.67192841 C1.67334197 69.68935282 1.69205873 71.70679498 1.70907402 73.72425079 C1.73316736 76.5470268 1.76321533 79.36968067 1.79467773 82.19238281 C1.8004332 83.02891891 1.80618866 83.86545502 1.81211853 84.7273407 C1.85762781 88.31267147 2.03563045 91.54870171 3 95 C2.01 95 1.02 95 0 95 C0 63.65 0 32.3 0 0 Z " fill="#8EC0A7" transform="translate(136,104)"/>
<path d="M0 0 C2.4375 0.375 2.4375 0.375 5 1 C6.25151326 3.50302652 6.08375047 5.11081202 6.02172852 7.90869141 C6.00163223 8.92959869 5.98153595 9.95050598 5.96083069 11.00234985 C5.93379562 12.10759003 5.90676056 13.2128302 5.87890625 14.3515625 C5.85529526 15.4807309 5.83168427 16.60989929 5.80735779 17.77328491 C5.73059782 21.39064728 5.64662645 25.00780217 5.5625 28.625 C5.50929167 31.07290641 5.4565512 33.52082304 5.40429688 35.96875 C5.27496601 41.97929589 5.13970928 47.98968688 5 54 C4.67 54 4.34 54 4 54 C3.99413376 53.42228348 3.98826752 52.84456696 3.98222351 52.24934387 C3.91823646 46.23060537 3.83380307 40.21239895 3.73754883 34.1940918 C3.70431649 31.9487205 3.67627931 29.703266 3.65356445 27.45776367 C3.61998798 24.22799257 3.56766927 20.99898273 3.51171875 17.76953125 C3.50532883 16.76727005 3.4989389 15.76500885 3.49235535 14.7323761 C3.38455291 9.60971748 3.18457831 6.23427633 0 2 C0 1.34 0 0.68 0 0 Z " fill="#70A88B" transform="translate(225,97)"/>
<path d="M0 0 C1 4 1 4 -0.0625 5.8125 C-0.701875 6.534375 -1.34125 7.25625 -2 8 C-3.06662648 9.20469234 -4.12883502 10.41330525 -5.1875 11.625 C-5.71730469 12.21539062 -6.24710938 12.80578125 -6.79296875 13.4140625 C-8.20187659 14.93307913 -8.20187659 14.93307913 -8 17 C-8.66 17 -9.32 17 -10 17 C-10.33 16.01 -10.66 15.02 -11 14 C-11.66 13.67 -12.32 13.34 -13 13 C-8.71 8.71 -4.42 4.42 0 0 Z " fill="#7AC19F" transform="translate(234,174)"/>
<path d="M0 0 C0.99 0.33 1.98 0.66 3 1 C2.67 2.32 2.34 3.64 2 5 C2.66 5 3.32 5 4 5 C4.66 6.32 5.32 7.64 6 9 C6.66 8.01 7.32 7.02 8 6 C8.37211538 12.57403846 8.37211538 12.57403846 6.48828125 14.73046875 C5.99714844 15.14941406 5.50601563 15.56835938 5 16 C4.1605118 13.89828133 3.32860344 11.79353375 2.5 9.6875 C2.0359375 8.51574219 1.571875 7.34398437 1.09375 6.13671875 C0 3 0 3 0 0 Z " fill="#7EC1A1" transform="translate(54,184)"/>
<path d="M0 0 C1.32 0.33 2.64 0.66 4 1 C3.360625 1.515625 2.72125 2.03125 2.0625 2.5625 C-0.68599027 5.3728396 -0.68599027 5.3728396 -1 12 C-5.95 12 -10.9 12 -16 12 C-16 11.67 -16 11.34 -16 11 C-11.38 11 -6.76 11 -2 11 C-2.3403125 9.39125 -2.3403125 9.39125 -2.6875 7.75 C-3 4 -3 4 -1.5625 1.5625 C-1.046875 1.046875 -0.53125 0.53125 0 0 Z " fill="#8EC1A9" transform="translate(159,85)"/>
<path d="M0 0 C0.33 0 0.66 0 1 0 C1.33 3.96 1.66 7.92 2 12 C2.33 12 2.66 12 3 12 C2.67 16.95 2.34 21.9 2 27 C1.67 27 1.34 27 1 27 C-0.06996173 17.98175113 -0.10234659 9.06335876 0 0 Z " fill="#A5D8BE" transform="translate(48,138)"/>
<path d="M0 0 C2.57343171 1.07918104 4.66603411 2.44402274 7 4 C6.67 5.32 6.34 6.64 6 8 C2.2047869 6.50902342 0.38957269 4.24299151 -2 1 C-1.34 0.67 -0.68 0.34 0 0 Z " fill="#7BBF9F" transform="translate(203,182)"/>
<path d="M0 0 C0.33 1.32 0.66 2.64 1 4 C-0.4600074 6.43334567 -1.45235564 7.72617782 -4 9 C-4.99 8.34 -5.98 7.68 -7 7 C-4.69 4.69 -2.38 2.38 0 0 Z " fill="#89C6AA" transform="translate(234,174)"/>
<path d="M0 0 C-1.45255699 3.82946843 -3.42895561 5.12050295 -7 7 C-7.99 6.34 -8.98 5.68 -10 5 C-8.90241493 4.15801693 -7.79664683 3.32669329 -6.6875 2.5 C-6.07261719 2.0359375 -5.45773438 1.571875 -4.82421875 1.09375 C-3 0 -3 0 0 0 Z " fill="#78BC9D" transform="translate(112,33)"/>
<path d="M0 0 C1.32 0 2.64 0 4 0 C4.66 0.99 5.32 1.98 6 3 C5.67 3.66 5.34 4.32 5 5 C5.66 5.33 6.32 5.66 7 6 C6.34 7.32 5.68 8.64 5 10 C4.16121545 8.71186658 3.32913217 7.41936744 2.5 6.125 C2.0359375 5.40570313 1.571875 4.68640625 1.09375 3.9453125 C0 2 0 2 0 0 Z " fill="#7FC2A2" transform="translate(64,209)"/>
<path d="M0 0 C1.14926266 0.95421808 2.29430541 1.91352045 3.4375 2.875 C4.07558594 3.40867188 4.71367187 3.94234375 5.37109375 4.4921875 C7 6 7 6 8 8 C6.68 8.33 5.36 8.66 4 9 C4 7.68 4 6.36 4 5 C2.35 5.66 0.7 6.32 -1 7 C-0.67 4.69 -0.34 2.38 0 0 Z " fill="#88C8AA" transform="translate(193,186)"/>
<path d="M0 0 C5.75 -0.125 5.75 -0.125 8 1 C8 1.66 8 2.32 8 3 C9.98 3 11.96 3 14 3 C13.67 3.66 13.34 4.32 13 5 C8.15340923 4.40895235 4.39251833 3.02055843 0 1 C0 0.67 0 0.34 0 0 Z " fill="#8CC4A9" transform="translate(126,268)"/>
<path d="M0 0 C0.66 0 1.32 0 2 0 C4.3208055 3.2491277 5.43697042 6.05879291 6 10 C3.03595495 7.19195732 0.55500981 4.81684226 -1 1 C-0.67 0.67 -0.34 0.34 0 0 Z " fill="#85C1A3" transform="translate(72,220)"/>
<path d="M0 0 C1.65 0 3.3 0 5 0 C3.60667426 3.36720387 2.0210714 4.9859524 -1 7 C-2 4 -2 4 -1.0625 1.8125 C-0.5365625 0.9153125 -0.5365625 0.9153125 0 0 Z " fill="#74BA97" transform="translate(220,172)"/>
<path d="M0 0 C1.32 0.66 2.64 1.32 4 2 C2.60667426 5.36720387 1.0210714 6.9859524 -2 9 C-2 7.68 -2 6.36 -2 5 C-1.34 5 -0.68 5 0 5 C0 3.35 0 1.7 0 0 Z " fill="#71BA98" transform="translate(229,162)"/>
<path d="M0 0 C0.66 0.33 1.32 0.66 2 1 C1.67 1.66 1.34 2.32 1 3 C0.34 2.67 -0.32 2.34 -1 2 C-0.67 1.34 -0.34 0.68 0 0 Z M-3.8125 3.375 C-3.214375 3.58125 -2.61625 3.7875 -2 4 C-2.33 4.66 -2.66 5.32 -3 6 C-3.99 5.67 -4.98 5.34 -6 5 C-6.33 5.99 -6.66 6.98 -7 8 C-7.99 8 -8.98 8 -10 8 C-8.84326352 4.52979057 -7.72561293 2.70418064 -3.8125 3.375 Z " fill="#72BA98" transform="translate(102,40)"/>
<path d="M0 0 C0.8353125 0.556875 0.8353125 0.556875 1.6875 1.125 C-4.9375 4.25 -4.9375 4.25 -8.3125 3.125 C-7.3125 1.125 -7.3125 1.125 -5 -0.125 C-2.3125 -0.875 -2.3125 -0.875 0 0 Z " fill="#8CC5AB" transform="translate(238.3125,267.875)"/>
<path d="M0 0 C-0.33 0.99 -0.66 1.98 -1 3 C-3.5625 4.1875 -3.5625 4.1875 -6 5 C-6 3.68 -6 2.36 -6 1 C-3 0 -3 0 0 0 Z " fill="#77BC9D" transform="translate(257,257)"/>
<path d="M0 0 C1.65 0 3.3 0 5 0 C3.63016497 3.16115776 3.0109362 3.9927092 0 6 C0 4.02 0 2.04 0 0 Z " fill="#78BD9B" transform="translate(272,241)"/>
<path d="M0 0 C0.66 1.32 1.32 2.64 2 4 C-0.31 4.66 -2.62 5.32 -5 6 C-5 5.34 -5 4.68 -5 4 C-3.37373596 2.61767557 -1.7074998 1.28062485 0 0 Z " fill="#8DCAAD" transform="translate(212,196)"/>
<path d="M0 0 C2.475 0.495 2.475 0.495 5 1 C5 4 5 4 3 7 C0 2.25 0 2.25 0 0 Z " fill="#7BC09F" transform="translate(225,97)"/>
<path d="M0 0 C3.36720387 1.39332574 4.9859524 2.9789286 7 6 C5.02 6 3.04 6 1 6 C0.67 4.02 0.34 2.04 0 0 Z " fill="#8EC7AD" transform="translate(272,46)"/>
<path d="M0 0 C0.99 0 1.98 0 3 0 C2.67 0.99 2.34 1.98 2 3 C1.34 3 0.68 3 0 3 C0 2.01 0 1.02 0 0 Z M-2 3 C-1.34 3 -0.68 3 0 3 C0 4.65 0 6.3 0 8 C-0.66 8 -1.32 8 -2 8 C-2.33 7.01 -2.66 6.02 -3 5 C-2.67 4.34 -2.34 3.68 -2 3 Z " fill="#72C09A" transform="translate(242,161)"/>
<path d="M0 0 C1.37562854 1.28965176 2.70766393 2.62689293 4 4 C4 4.66 4 5.32 4 6 C2.35 5.67 0.7 5.34 -1 5 C-0.67 3.35 -0.34 1.7 0 0 Z " fill="#7DBE9D" transform="translate(294,71)"/>
<path d="M0 0 C0.66 0.99 1.32 1.98 2 3 C0.02 4.32 -1.96 5.64 -4 7 C-4.66 6.67 -5.32 6.34 -6 6 C-4.02 4.02 -2.04 2.04 0 0 Z " fill="#8DC9AD" transform="translate(89,49)"/>
<path d="M0 0 C0.66 0 1.32 0 2 0 C2.625 2.875 2.625 2.875 3 6 C2.34 6.66 1.68 7.32 1 8 C0.26919734 6.02253397 -0.39421747 4.01927511 -1 2 C-0.67 1.34 -0.34 0.68 0 0 Z " fill="#6CBB96" transform="translate(284,226)"/>
<path d="M0 0 C1.98 1.65 3.96 3.3 6 5 C3.50907189 6.24546405 2.58919267 5.7767578 0 5 C0 3.35 0 1.7 0 0 Z " fill="#92CBB0" transform="translate(201,194)"/>
<path d="M0 0 C2.0625 0.4375 2.0625 0.4375 4 1 C2.37660195 2.70884005 0.70680947 4.37446717 -1 6 C-1.66 6 -2.32 6 -3 6 C-1.125 1.125 -1.125 1.125 0 0 Z " fill="#7DBB9D" transform="translate(159,85)"/>
</svg>
