<svg width="12" height="11" viewBox="0 0 12 11" fill="none" xmlns="http://www.w3.org/2000/svg">
<path d="M10.9091 0.932617H0.909091C0.667985 0.932617 0.436754 1.0284 0.266267 1.19888C0.0957789 1.36937 0 1.6006 0 1.84171V10.0235C0 10.2646 0.0957789 10.4959 0.266267 10.6664C0.436754 10.8368 0.667985 10.9326 0.909091 10.9326H1.66989C1.75591 10.9326 1.84018 10.9083 1.9129 10.8623C1.98562 10.8163 2.0438 10.7507 2.08068 10.673C2.30172 10.2063 2.65069 9.81197 3.08701 9.53584C3.52334 9.25971 4.02909 9.11312 4.54545 9.11312C5.06182 9.11312 5.56757 9.25971 6.00389 9.53584C6.44022 9.81197 6.78919 10.2063 7.01023 10.673C7.04711 10.7507 7.10529 10.8163 7.17801 10.8623C7.25073 10.9083 7.335 10.9326 7.42102 10.9326H10.9091C11.1502 10.9326 11.3814 10.8368 11.5519 10.6664C11.7224 10.4959 11.8182 10.2646 11.8182 10.0235V1.84171C11.8182 1.6006 11.7224 1.36937 11.5519 1.19888C11.3814 1.0284 11.1502 0.932617 10.9091 0.932617ZM3.18182 6.84171C3.18182 6.57201 3.26179 6.30836 3.41163 6.08411C3.56147 5.85986 3.77444 5.68508 4.02361 5.58187C4.27279 5.47866 4.54697 5.45166 4.81149 5.50427C5.07601 5.55689 5.31898 5.68676 5.50969 5.87747C5.7004 6.06818 5.83027 6.31116 5.88289 6.57568C5.93551 6.8402 5.9085 7.11438 5.80529 7.36355C5.70208 7.61272 5.5273 7.82569 5.30305 7.97553C5.0788 8.12537 4.81516 8.20534 4.54545 8.20534C4.1838 8.20534 3.83695 8.06168 3.58122 7.80594C3.32549 7.55021 3.18182 7.20337 3.18182 6.84171ZM10.9091 10.0235H7.69489C7.3153 9.37093 6.74312 8.85174 6.05682 8.53716C6.4009 8.23079 6.64375 7.82707 6.75316 7.37953C6.86258 6.932 6.83339 6.46178 6.66948 6.0312C6.50557 5.60063 6.21466 5.23004 5.83534 4.96856C5.45601 4.70708 5.00617 4.56706 4.54545 4.56706C4.08474 4.56706 3.6349 4.70708 3.25557 4.96856C2.87625 5.23004 2.58534 5.60063 2.42143 6.0312C2.25752 6.46178 2.22833 6.932 2.33775 7.37953C2.44716 7.82707 2.69001 8.23079 3.03409 8.53716C2.34779 8.85174 1.77561 9.37093 1.39602 10.0235H0.909091V1.84171H10.9091V10.0235ZM1.81818 4.11444V3.20534C1.81818 3.08479 1.86607 2.96918 1.95132 2.88393C2.03656 2.79869 2.15217 2.7508 2.27273 2.7508H9.54545C9.66601 2.7508 9.78162 2.79869 9.86687 2.88393C9.95211 2.96918 10 3.08479 10 3.20534V8.65989C10 8.78044 9.95211 8.89606 9.86687 8.9813C9.78162 9.06655 9.66601 9.11444 9.54545 9.11444H8.63636C8.51581 9.11444 8.4002 9.06655 8.31495 8.9813C8.22971 8.89606 8.18182 8.78044 8.18182 8.65989C8.18182 8.53934 8.22971 8.42372 8.31495 8.33848C8.4002 8.25323 8.51581 8.20534 8.63636 8.20534H9.09091V3.65989H2.72727V4.11444C2.72727 4.23499 2.67938 4.3506 2.59414 4.43585C2.5089 4.52109 2.39328 4.56898 2.27273 4.56898C2.15217 4.56898 2.03656 4.52109 1.95132 4.43585C1.86607 4.3506 1.81818 4.23499 1.81818 4.11444Z" fill="white"/>
</svg>
