<?xml version="1.0" encoding="UTF-8"?>
<svg version="1.1" xmlns="http://www.w3.org/2000/svg" width="64" height="96">
<path d="M0 0 C1.57180585 5.21287738 3.13824317 10.42732598 4.69970703 15.64331055 C5.23175829 17.41784272 5.76527909 19.19193497 6.30029297 20.96557617 C7.06864139 23.51367042 7.83170723 26.06329517 8.59375 28.61328125 C8.83436157 29.40712723 9.07497314 30.20097321 9.32287598 31.01887512 C10.24104279 34.10630971 11 36.76040053 11 40 C12.65 40 14.3 40 16 40 C16 58.48 16 76.96 16 96 C-5.12 96 -26.24 96 -48 96 C-48 95.67 -48 95.34 -48 95 C-27.21 95 -6.42 95 15 95 C15 80.81 15 66.62 15 52 C-5.79 52 -26.58 52 -48 52 C-48 51.67 -48 51.34 -48 51 C-27.21 51 -6.42 51 15 51 C15 47.7 15 44.4 15 41 C-5.79 41 -26.58 41 -48 41 C-47.67 39.68 -47.34 38.36 -47 37 C-44.890625 35.953125 -44.890625 35.953125 -42.25 35.25 C-41.38890625 35.00765625 -40.5278125 34.7653125 -39.640625 34.515625 C-37.02064917 34.00403209 -34.66167137 33.90425643 -32 34 C-33 37 -33 37 -37 39 C-33.04 38.01 -29.08 37.02 -25 36 C-24.67 36.99 -24.34 37.98 -24 39 C-17.07 39.495 -17.07 39.495 -10 40 C-10.66 37.03 -11.32 34.06 -12 31 C-5.80526919 28.02176403 -5.80526919 28.02176403 -2.6875 27.9375 C0.05436242 29.66385782 0.2821242 31.94902786 1 35 C1 36.32 1 37.64 1 39 C3.64 39 6.28 39 9 39 C8.6390625 37.81921875 8.278125 36.6384375 7.90625 35.421875 C7.43721233 33.86466995 6.96847819 32.30737346 6.5 30.75 C6.26152344 29.97269531 6.02304687 29.19539063 5.77734375 28.39453125 C5.55175781 27.64042969 5.32617188 26.88632812 5.09375 26.109375 C4.88427734 25.41811523 4.67480469 24.72685547 4.45898438 24.01464844 C4 22 4 22 4 18 C3.3927861 18.17539307 2.7855722 18.35078613 2.15995789 18.53149414 C-4.14874881 20.3529154 -10.4590303 22.16879884 -16.77026367 23.98144531 C-19.12679408 24.65905541 -21.48291647 25.3380861 -23.83862305 26.01855469 C-27.22078404 26.99525957 -30.60436976 27.96687989 -33.98828125 28.9375 C-35.04461258 29.24373291 -36.10094391 29.54996582 -37.18928528 29.86547852 C-38.17007553 30.14576904 -39.15086578 30.42605957 -40.16137695 30.71484375 C-41.02519485 30.96355225 -41.88901276 31.21226074 -42.77900696 31.46850586 C-45 32 -45 32 -48 32 C-48 29.03 -48 26.06 -48 23 C-42.21904407 20.76249146 -36.4107631 18.84256259 -30.46875 17.08203125 C-29.59222778 16.81992355 -28.71570557 16.55781586 -27.81262207 16.2877655 C-25.04251984 15.46006437 -22.27128818 14.63622057 -19.5 13.8125 C-17.60929869 13.24830255 -15.71867292 12.68385187 -13.828125 12.11914062 C-9.21961796 10.74316546 -4.61009471 9.37064593 0 8 C-0.495 4.535 -0.495 4.535 -1 1 C-1.54457352 1.1650856 -2.08914703 1.3301712 -2.65022278 1.5002594 C-8.30838632 3.2136576 -13.97009392 4.91492555 -19.6340332 6.60913086 C-21.7485783 7.2433807 -23.86219365 7.88073878 -25.97485352 8.52124023 C-29.00819839 9.44028465 -32.04468933 10.34817252 -35.08203125 11.25390625 C-36.02899368 11.54342667 -36.97595612 11.83294708 -37.95161438 12.13124084 C-38.83230087 12.39158615 -39.71298737 12.65193146 -40.62036133 12.92016602 C-41.39535477 13.15333023 -42.17034821 13.38649445 -42.96882629 13.62672424 C-45 14 -45 14 -48 13 C-42.71095783 10.96725734 -37.42229365 9.13406767 -31.9921875 7.51953125 C-30.89851364 7.19295784 -30.89851364 7.19295784 -29.78274536 6.85978699 C-28.25554559 6.40531657 -26.72785948 5.95247742 -25.19970703 5.5012207 C-22.87157309 4.81148474 -20.54718728 4.10997145 -18.22265625 3.40820312 C-16.7293826 2.96541697 -15.23589987 2.52333514 -13.7421875 2.08203125 C-12.71072098 1.76804131 -12.71072098 1.76804131 -11.65841675 1.44770813 C-7.66433925 0.2849124 -4.15554366 -0.21491411 0 0 Z " fill="#FFFFFF" transform="translate(48,0)"/>
<path d="M0 0 C2.74186242 1.72635782 2.9696242 4.01152786 3.6875 7.0625 C3.6875 8.3825 3.6875 9.7025 3.6875 11.0625 C6.3275 11.3925 8.9675 11.7225 11.6875 12.0625 C11.6875 12.3925 11.6875 12.7225 11.6875 13.0625 C-7.1225 13.0625 -25.9325 13.0625 -45.3125 13.0625 C-44.9825 11.7425 -44.6525 10.4225 -44.3125 9.0625 C-42.203125 8.015625 -42.203125 8.015625 -39.5625 7.3125 C-38.27085938 6.94898438 -38.27085938 6.94898438 -36.953125 6.578125 C-34.33314917 6.06653209 -31.97417137 5.96675643 -29.3125 6.0625 C-30.3125 9.0625 -30.3125 9.0625 -34.3125 11.0625 C-30.3525 10.0725 -26.3925 9.0825 -22.3125 8.0625 C-21.9825 9.0525 -21.6525 10.0425 -21.3125 11.0625 C-14.3825 11.5575 -14.3825 11.5575 -7.3125 12.0625 C-7.9725 9.0925 -8.6325 6.1225 -9.3125 3.0625 C-3.11776919 0.08426403 -3.11776919 0.08426403 0 0 Z " fill="#FDFDFD" transform="translate(45.3125,27.9375)"/>
<path d="M0 0 C1.65322266 0.01740234 1.65322266 0.01740234 3.33984375 0.03515625 C4.99693359 0.04869141 4.99693359 0.04869141 6.6875 0.0625 C7.54214844 0.07410156 8.39679687 0.08570313 9.27734375 0.09765625 C9.27734375 3.06765625 9.27734375 6.03765625 9.27734375 9.09765625 C7.29824977 9.12452178 5.31905404 9.14399 3.33984375 9.16015625 C2.23769531 9.17175781 1.13554687 9.18335937 0 9.1953125 C-2.72265625 9.09765625 -2.72265625 9.09765625 -3.72265625 8.09765625 C-3.84765625 4.59765625 -3.84765625 4.59765625 -3.72265625 1.09765625 C-2.72265625 0.09765625 -2.72265625 0.09765625 0 0 Z " fill="#FFFFFF" transform="translate(23.72265625,62.90234375)"/>
<path d="M0 0 C2.64 0 5.28 0 8 0 C8 2.97 8 5.94 8 9 C5.36 9 2.72 9 0 9 C0 6.03 0 3.06 0 0 Z " fill="#FFFFFF" transform="translate(41,63)"/>
<path d="M0 0 C2.64 0 5.28 0 8 0 C8 2.97 8 5.94 8 9 C5.36 9 2.72 9 0 9 C0 6.03 0 3.06 0 0 Z " fill="#FFFFFF" transform="translate(5,63)"/>
<path d="M0 0 C-1 3 -1 3 -2.85546875 3.94921875 C-7.37075277 5.37868052 -11.19984755 6.3692425 -16 6 C-15.67 5.01 -15.34 4.02 -15 3 C-12.890625 2.05078125 -12.890625 2.05078125 -10.25 1.3125 C-9.38890625 1.06113281 -8.5278125 0.80976562 -7.640625 0.55078125 C-5.01182147 0.00246572 -2.67647662 -0.10108994 0 0 Z " fill="#CCCCCC" transform="translate(16,34)"/>
<path d="M0 0 C0.99 0 1.98 0 3 0 C3 2.97 3 5.94 3 9 C1.68 8.67 0.36 8.34 -1 8 C-1.04241723 5.66705225 -1.04092937 3.33297433 -1 1 C-0.67 0.67 -0.34 0.34 0 0 Z " fill="#FFFFFF" transform="translate(37,63)"/>
<path d="M0 0 C1.32 0.33 2.64 0.66 4 1 C4 3.31 4 5.62 4 8 C2.68 8.33 1.36 8.66 0 9 C0 6.03 0 3.06 0 0 Z " fill="#FFFFFF" transform="translate(14,63)"/>
<path d="M0 0 C-0.33 0.99 -0.66 1.98 -1 3 C-4.96 3 -8.92 3 -13 3 C-3.5 -1.75 -3.5 -1.75 0 0 Z " fill="#CCCCCC" transform="translate(24,37)"/>
<path d="M0 0 C0.66 0 1.32 0 2 0 C2 2.64 2 5.28 2 8 C1.01 8.495 1.01 8.495 0 9 C0 6.03 0 3.06 0 0 Z " fill="#FFFFFF" transform="translate(0,63)"/>
<path d="M0 0 C1.32 0 2.64 0 4 0 C3.67 0.99 3.34 1.98 3 3 C2.01 3 1.02 3 0 3 C0 2.01 0 1.02 0 0 Z " fill="#E5E5E5" transform="translate(0,88)"/>
</svg>
