<?xml version="1.0" encoding="UTF-8"?>
<svg version="1.1" xmlns="http://www.w3.org/2000/svg" width="71" height="99">
<path d="M0 0 C0.66 0.33 1.32 0.66 2 1 C-1.63 9.25 -5.26 17.5 -9 26 C-6.03 22.535 -6.03 22.535 -3 19 C-1.34040476 17.1810229 0.32586174 15.36810104 2 13.5625 C5.03939688 10.27813681 7.6918347 7.06196784 10.125 3.3125 C11.7461157 1.02523618 12.38268488 0.14081093 15.140625 -0.48828125 C17.375 -0.5 17.375 -0.5 21 0 C20.835 0.763125 20.67 1.52625 20.5 2.3125 C19.90854604 5.03596236 19.90854604 5.03596236 20 8 C17.525 6.02 17.525 6.02 15 4 C10.44984107 5.51671964 8.49942736 9.16891053 6 13 C7.56089026 14.41844009 9.1237889 15.83467025 10.6875 17.25 C11.99267578 18.43335938 11.99267578 18.43335938 13.32421875 19.640625 C15.82420863 21.84499564 18.37945728 23.94133941 21 26 C20.67 26.66 20.34 27.32 20 28 C19.03578125 27.12214844 18.0715625 26.24429687 17.078125 25.33984375 C15.80267273 24.20506636 14.5265985 23.07098776 13.25 21.9375 C12.61578125 21.35677734 11.9815625 20.77605469 11.328125 20.17773438 C10.4 19.36079102 10.4 19.36079102 9.453125 18.52734375 C8.88754883 18.01937256 8.32197266 17.51140137 7.73925781 16.98803711 C6.03459296 15.80352115 6.03459296 15.80352115 3.95288086 16.16870117 C0.58127283 17.60392124 -1.41952521 20.59940495 -3.6875 23.375 C-4.21786865 24.00913818 -4.7482373 24.64327637 -5.29467773 25.29663086 C-6.87340126 27.18952822 -8.43876028 29.09267014 -10 31 C-10.79148437 31.96292969 -11.58296875 32.92585938 -12.3984375 33.91796875 C-13.83557867 35.67418639 -15.26920591 37.43328571 -16.69921875 39.1953125 C-19.84690534 43.03239055 -23.05986247 46.81276023 -26.28344727 50.58618164 C-28.61761864 53.32711325 -30.88132759 56.0885793 -33 59 C-31.49775154 62.73892951 -29.39834702 64.54093605 -26.25 67 C-21.75113184 70.5802511 -17.34920281 74.23947837 -13 78 C-7.8468054 82.44185111 -2.63612668 86.79589044 2.64453125 91.0859375 C5.4506441 93.36619504 8.22847815 95.67791413 11 98 C10.01 98.495 10.01 98.495 9 99 C2.3060354 93.59018371 -4.27633739 88.07254406 -10.79418945 82.453125 C-14.42421373 79.33043782 -18.09342539 76.26687172 -21.8125 73.25 C-26.67138347 69.30666282 -31.36344278 65.20152222 -36 61 C-34.59945495 56.73747158 -32.59743966 54.21506395 -29.5 51 C-19.12673398 39.84459946 -12.14952964 29.21475528 -6.375 15.1875 C-5.74782909 13.70434312 -5.11892979 12.22191589 -4.48828125 10.74023438 C-2.97223678 7.16820849 -1.47955117 3.58728628 0 0 Z " fill="#FFFFFF" transform="translate(50,0)"/>
<path d="M0 0 C2.46800047 1.15173355 4.04783565 2.04783565 6 4 C6.99 4.66 7.98 5.32 9 6 C10.30765478 9.92296433 10.1971417 12.86002433 10 17 C9.34 17.66 8.68 18.32 8 19 C5.375 18.625 5.375 18.625 3 18 C3 17.34 3 16.68 3 16 C1.68 15.67 0.36 15.34 -1 15 C-1 13.68 -1 12.36 -1 11 C-2.65 10.67 -4.3 10.34 -6 10 C-5.49477778 5.62140745 -2.82172778 3.18348776 0 0 Z " fill="#FFFFFF" transform="translate(61,41)"/>
<path d="M0 0 C5.10603966 0.38247488 7.99516618 3.20672702 11.625 6.5 C12.8584303 7.589612 14.09281815 8.67814094 15.328125 9.765625 C15.94107422 10.30896484 16.55402344 10.85230469 17.18554688 11.41210938 C21.35601153 15.0618271 25.6902659 18.51703122 30 22 C29.67 22.99 29.34 23.98 29 25 C24.6975505 24.50236729 22.04761488 21.75434358 18.9375 19 C17.78613943 17.99756755 16.63377752 16.99628416 15.48046875 15.99609375 C14.90216309 15.49319824 14.32385742 14.99030273 13.72802734 14.47216797 C12.09226817 13.07860654 10.42929922 11.73582764 8.73828125 10.41015625 C7.75214844 9.63542969 6.76601563 8.86070313 5.75 8.0625 C4.85796875 7.37285156 3.9659375 6.68320312 3.046875 5.97265625 C0.91834195 3.92130283 0.336183 2.88988083 0 0 Z " fill="#E5E5E5" transform="translate(25,57)"/>
<path d="M0 0 C4.51045941 2.46025059 8.18504423 5.60282037 12 9 C11.67 9.99 11.34 10.98 11 12 C7.09170915 11.4352699 5.10079777 9.57868029 2.25 6.9375 C1.45078125 6.20402344 0.6515625 5.47054687 -0.171875 4.71484375 C-0.77515625 4.14894531 -1.3784375 3.58304688 -2 3 C-1.34 2.01 -0.68 1.02 0 0 Z " fill="#E5E5E5" transform="translate(39,58)"/>
<path d="M0 0 C2 0.25 2 0.25 4 1 C4.33 1.99 4.66 2.98 5 4 C4.01 4.495 4.01 4.495 3 5 C3 5.66 3 6.32 3 7 C3.66 7.33 4.32 7.66 5 8 C5 8.66 5 9.32 5 10 C2.68001641 9.60000283 1.13676576 9.09432121 -0.8125 7.75 C-2 6 -2 6 -1.75 3.375 C-1 1 -1 1 0 0 Z " fill="#FFFFFF" transform="translate(66,9)"/>
</svg>
