<svg width="20" height="19" viewBox="0 0 20 19" fill="none" xmlns="http://www.w3.org/2000/svg">
<path d="M2.86865 9.48284C2.86865 8.25884 3.19165 7.12484 3.83132 6.08684C4.47099 5.04884 5.33865 4.22684 6.43432 3.62084C7.52999 3.01484 8.72065 2.71484 10.0063 2.71484C10.969 2.71484 11.8937 2.89484 12.774 3.24884C13.6543 3.60284 14.408 4.08884 15.0477 4.68884C15.6873 5.28884 16.194 6.00884 16.5677 6.84884C16.9413 7.68884 17.1313 8.55884 17.1313 9.48284C17.1313 10.3948 16.9413 11.2708 16.5677 12.1048C16.194 12.9388 15.681 13.6588 15.0477 14.2588C14.4143 14.8588 13.6543 15.3388 12.774 15.6928C11.8937 16.0468 10.9753 16.2268 10.0063 16.2268C9.03732 16.2268 8.10632 16.0468 7.22599 15.6928C6.34565 15.3388 5.58565 14.8528 4.94599 14.2528C4.30632 13.6528 3.80599 12.9328 3.42599 12.1048C3.04599 11.2768 2.86865 10.4008 2.86865 9.48284ZM4.43932 9.48284C4.43932 10.9048 4.98399 12.1408 6.07965 13.1908C7.17532 14.2288 8.47999 14.7448 10.0063 14.7448C11.007 14.7448 11.938 14.5108 12.7867 14.0368C13.6353 13.5628 14.3193 12.9268 14.8197 12.1168C15.32 11.3068 15.5733 10.4308 15.5733 9.48284C15.5733 8.53484 15.32 7.65284 14.8197 6.84284C14.3193 6.03284 13.6417 5.39084 12.7867 4.91684C11.9317 4.44284 11.007 4.20884 10.0063 4.20884C9.00565 4.20884 8.07465 4.44284 7.22599 4.91684C6.37732 5.39084 5.69332 6.03284 5.18665 6.84284C4.67999 7.65284 4.43932 8.53484 4.43932 9.48284ZM9.45532 9.48284V5.48684C9.45532 5.34884 9.50599 5.22884 9.60732 5.13284C9.70865 5.03684 9.83532 4.98884 9.98099 4.98884C10.1267 4.98884 10.2533 5.03684 10.3547 5.13284C10.456 5.22884 10.5067 5.34884 10.5067 5.48684V9.17684L12.7803 10.4308C12.907 10.5028 12.983 10.6048 13.021 10.7368C13.059 10.8688 13.04 10.9948 12.964 11.1088C12.8627 11.2768 12.7107 11.3608 12.508 11.3608C12.4003 11.3608 12.3117 11.3368 12.242 11.2888L9.82265 9.95084C9.71499 9.92084 9.62632 9.86084 9.55665 9.77684C9.48699 9.69284 9.45532 9.59684 9.45532 9.48284Z" fill="white"/>
</svg>
