<svg width="26" height="25" viewBox="0 0 26 25" fill="none" xmlns="http://www.w3.org/2000/svg">
<path d="M3.24133 12.3765C3.24133 10.7445 3.68333 9.23254 4.55867 7.84854C5.434 6.46454 6.62133 5.36854 8.12067 4.56054C9.62 3.75254 11.2493 3.35254 13.0087 3.35254C14.326 3.35254 15.5913 3.59254 16.796 4.06454C18.0007 4.53654 19.032 5.18454 19.9073 5.98454C20.7827 6.78454 21.476 7.74454 21.9873 8.86454C22.4987 9.98454 22.7587 11.1445 22.7587 12.3765C22.7587 13.5925 22.4987 14.7605 21.9873 15.8725C21.476 16.9845 20.774 17.9445 19.9073 18.7445C19.0407 19.5445 18.0007 20.1845 16.796 20.6565C15.5913 21.1285 14.3347 21.3685 13.0087 21.3685C11.6827 21.3685 10.4087 21.1285 9.204 20.6565C7.99933 20.1845 6.95933 19.5365 6.084 18.7365C5.20867 17.9365 4.524 16.9765 4.004 15.8725C3.484 14.7685 3.24133 13.6005 3.24133 12.3765ZM5.39067 12.3765C5.39067 14.2725 6.136 15.9205 7.63533 17.3205C9.13467 18.7045 10.92 19.3925 13.0087 19.3925C14.378 19.3925 15.652 19.0805 16.8133 18.4485C17.9747 17.8165 18.9107 16.9685 19.5953 15.8885C20.28 14.8085 20.6267 13.6405 20.6267 12.3765C20.6267 11.1125 20.28 9.93654 19.5953 8.85654C18.9107 7.77654 17.9833 6.92054 16.8133 6.28854C15.6433 5.65654 14.378 5.34454 13.0087 5.34454C11.6393 5.34454 10.3653 5.65654 9.204 6.28854C8.04267 6.92054 7.10667 7.77654 6.41333 8.85654C5.72 9.93654 5.39067 11.1125 5.39067 12.3765ZM12.2547 12.3765V7.04854C12.2547 6.86454 12.324 6.70454 12.4627 6.57654C12.6013 6.44854 12.7747 6.38454 12.974 6.38454C13.1733 6.38454 13.3467 6.44854 13.4853 6.57654C13.624 6.70454 13.6933 6.86454 13.6933 7.04854V11.9685L16.8047 13.6405C16.978 13.7365 17.082 13.8725 17.134 14.0485C17.186 14.2245 17.16 14.3925 17.056 14.5445C16.9173 14.7685 16.7093 14.8805 16.432 14.8805C16.2847 14.8805 16.1633 14.8485 16.068 14.7845L12.7573 13.0005C12.61 12.9605 12.4887 12.8805 12.3933 12.7685C12.298 12.6565 12.2547 12.5285 12.2547 12.3765Z" fill="white"/>
</svg>
